999
dxfrw 0.6.3
  0
SECTION
  2
HEADER
  9
$ACADVER
  1
AC1021
  9
$DWGCODEPAGE
  3
ANSI_1252
  9
$INSBASE
 10
0
 20
0
 30
0
  9
$EXTMIN
 10
10000000000
 20
10000000000
 30
0
  9
$EXTMAX
 10
-10000000000
 20
-10000000000
 30
0
  9
$LIMMIN
 10
0
 20
0
  9
$LIMMAX
 10
420
 20
297
  9
$ORTHOMODE
 70
    0
  9
$REGENMODE
 70
    1
  9
$FILLMODE
 70
    1
  9
$QTEXTMODE
 70
    0
  9
$MIRRTEXT
 70
    0
  9
$LTSCALE
 40
1
  9
$ATTMODE
 70
    0
  9
$TEXTSIZE
 40
2.5
  9
$TRACEWID
 40
15.68
  9
$TEXTSTYLE
  7
STANDARD
  9
$CLAYER
  8
Langen
  9
$CELTYPE
  6
BYLAYER
  9
$CECOLOR
 62
  256
  9
$CELTSCALE
 40
1
  9
$DISPSILH
 70
    0
  9
$DIMSCALE
 40
1
  9
$DIMASZ
 40
2.5
  9
$DIMEXO
 40
0.625
  9
$DIMDLI
 40
3.75
  9
$DIMRND
 40
0
  9
$DIMDLE
 40
0
  9
$DIMEXE
 40
1.25
  9
$DIMTP
 40
0
  9
$DIMTM
 40
0
  9
$DIMTXT
 40
2.5
  9
$DIMCEN
 40
2.5
  9
$DIMTSZ
 40
0
  9
$DIMTOL
 70
    0
  9
$DIMLIM
 70
    0
  9
$DIMTIH
 70
    0
  9
$DIMTOH
 70
    0
  9
$DIMSE1
 70
    0
  9
$DIMSE2
 70
    0
  9
$DIMTAD
 70
    1
  9
$DIMZIN
 70
    8
  9
$DIMBLK
  1

  9
$DIMASO
 70
    1
  9
$DIMSHO
 70
    1
  9
$DIMPOST
  1

  9
$DIMAPOST
  1

  9
$DIMALT
 70
    0
  9
$DIMALTD
 70
    3
  9
$DIMALTF
 40
0.03937
  9
$DIMLFAC
 40
1
  9
$DIMTOFL
 70
    1
  9
$DIMTVP
 40
0
  9
$DIMTIX
 70
    0
  9
$DIMSOXD
 70
    0
  9
$DIMSAH
 70
    0
  9
$DIMBLK1
  1

  9
$DIMBLK2
  1

  9
$DIMSTYLE
  2
STANDARD
  9
$DIMCLRD
 70
    0
  9
$DIMCLRE
 70
    0
  9
$DIMCLRT
 70
    0
  9
$DIMTFAC
 40
1
  9
$DIMGAP
 40
0.625
  9
$DIMJUST
 70
    0
  9
$DIMSD1
 70
    0
  9
$DIMSD2
 70
    0
  9
$DIMTOLJ
 70
    0
  9
$DIMTZIN
 70
    8
  9
$DIMALTZ
 70
    0
  9
$DIMALTTZ
 70
    0
  9
$DIMUPT
 70
    0
  9
$DIMDEC
 70
    2
  9
$DIMTDEC
 70
    2
  9
$DIMALTU
 70
    2
  9
$DIMALTTD
 70
    3
  9
$DIMTXSTY
  7
standard
  9
$DIMAUNIT
 70
    0
  9
$DIMADEC
 70
    0
  9
$DIMALTRND
 40
0
  9
$DIMAZIN
 70
    0
  9
$DIMDSEP
 70
   44
  9
$DIMATFIT
 70
    3
  9
$DIMFRAC
 70
    0
  9
$DIMLDRBLK
  1
STANDARD
  9
$DIMLUNIT
 70
    2
  9
$DIMLWD
 70
   -2
  9
$DIMLWE
 70
   -2
  9
$DIMTMOVE
 70
    0
  9
$DIMFXL
 40
1
  9
$DIMFXLON
 70
    0
  9
$DIMJOGANG
 40
0.7854
  9
$DIMTFILL
 70
    0
  9
$DIMTFILLCLR
 70
    0
  9
$DIMARCSYM
 70
    0
  9
$DIMLTYPE
  6

  9
$DIMLTEX1
  6

  9
$DIMLTEX2
  6

  9
$LUNITS
 70
    2
  9
$LUPREC
 70
    4
  9
$SKETCHINC
 40
1
  9
$FILLETRAD
 40
0
  9
$AUNITS
 70
    0
  9
$AUPREC
 70
    2
  9
$MENU
  1
.
  9
$ELEVATION
 40
0
  9
$PELEVATION
 40
0
  9
$THICKNESS
 40
0
  9
$LIMCHECK
 70
    0
  9
$CHAMFERA
 40
0
  9
$CHAMFERB
 40
0
  9
$CHAMFERC
 40
0
  9
$CHAMFERD
 40
0
  9
$SKPOLY
 70
    0
  9
$USRTIMER
 70
    1
  9
$ANGBASE
 50
0
  9
$ANGDIR
 70
    0
  9
$PDMODE
 70
   34
  9
$PDSIZE
 40
0
  9
$PLINEWID
 40
0
  9
$SPLFRAME
 70
    0
  9
$SPLINETYPE
 70
    2
  9
$SPLINESEGS
 70
    8
  9
$HANDSEED
  5
20000
  9
$SURFTAB1
 70
    6
  9
$SURFTAB2
 70
    6
  9
$SURFTYPE
 70
    6
  9
$SURFU
 70
    6
  9
$SURFV
 70
    6
  9
$UCSBASE
  2

  9
$UCSNAME
  2

  9
$UCSORG
 10
0
 20
0
 30
0
  9
$UCSXDIR
 10
1
 20
0
 30
0
  9
$UCSYDIR
 10
0
 20
1
 30
0
  9
$UCSORTHOREF
  2

  9
$UCSORTHOVIEW
 70
    0
  9
$UCSORGTOP
 10
0
 20
0
 30
0
  9
$UCSORGBOTTOM
 10
0
 20
0
 30
0
  9
$UCSORGLEFT
 10
0
 20
0
 30
0
  9
$UCSORGRIGHT
 10
0
 20
0
 30
0
  9
$UCSORGFRONT
 10
0
 20
0
 30
0
  9
$UCSORGBACK
 10
0
 20
0
 30
0
  9
$PUCSBASE
  2

  9
$PUCSNAME
  2

  9
$PUCSORG
 10
0
 20
0
 30
0
  9
$PUCSXDIR
 10
1
 20
0
 30
0
  9
$PUCSYDIR
 10
0
 20
1
 30
0
  9
$PUCSORTHOREF
  2

  9
$PUCSORTHOVIEW
 70
    0
  9
$PUCSORGTOP
 10
0
 20
0
 30
0
  9
$PUCSORGBOTTOM
 10
0
 20
0
 30
0
  9
$PUCSORGLEFT
 10
0
 20
0
 30
0
  9
$PUCSORGRIGHT
 10
0
 20
0
 30
0
  9
$PUCSORGFRONT
 10
0
 20
0
 30
0
  9
$PUCSORGBACK
 10
0
 20
0
 30
0
  9
$USERI1
 70
    0
  9
$USERI2
 70
    0
  9
$USERI3
 70
    0
  9
$USERI4
 70
    0
  9
$USERI5
 70
    0
  9
$USERR1
 40
0
  9
$USERR2
 40
0
  9
$USERR3
 40
0
  9
$USERR4
 40
0
  9
$USERR5
 40
0
  9
$WORLDVIEW
 70
    1
  9
$SHADEDGE
 70
    3
  9
$SHADEDIF
 70
   70
  9
$TILEMODE
 70
    1
  9
$MAXACTVP
 70
   64
  9
$PINSBASE
 10
49.59467333014852
 20
73.97335423197492
 30
0
  9
$PLIMCHECK
 70
    0
  9
$PEXTMIN
 10
0
 20
0
 30
0
  9
$PEXTMAX
 10
0
 20
0
 30
0
  9
$GRIDMODE
 70
    1
  9
$SNAPSTYLE
 70
    0
  9
$GRIDUNIT
 10
0
 20
0
  9
$PLIMMIN
 10
0
 20
0
  9
$PLIMMAX
 10
297
 20
210
  9
$UNITMODE
 70
    0
  9
$VISRETAIN
 70
    1
  9
$PLINEGEN
 70
    0
  9
$PSLTSCALE
 70
    1
  9
$TREEDEPTH
 70
 3020
  9
$CMLSTYLE
  2
Standard
  9
$CMLJUST
 70
    0
  9
$CMLSCALE
 40
20
  9
$PROXYGRAPHICS
 70
    1
  9
$MEASUREMENT
 70
    1
  9
$CELWEIGHT
370
   -1
  9
$ENDCAPS
280
    0
  9
$JOINSTYLE
280
    0
  9
$LWDISPLAY
290
    0
  9
$INSUNITS
 70
    4
  9
$HYPERLINKBASE
  1

  9
$STYLESHEET
  1

  9
$XEDIT
290
    1
  9
$CEPSNTYPE
380
    0
  9
$PSTYLEMODE
290
    1
  9
$EXTNAMES
290
    1
  9
$PSVPSCALE
 40
0.9279020135473693
  9
$OLESTARTUP
290
    0
  9
$SORTENTS
280
  127
  9
$INDEXCTL
280
    0
  9
$HIDETEXT
280
    1
  9
$XCLIPFRAME
290
    0
  9
$HALOGAP
280
    0
  9
$OBSCOLOR
 70
  257
  9
$OBSLTYPE
280
    0
  9
$INTERSECTIONDISPLAY
280
    0
  9
$INTERSECTIONCOLOR
 70
  257
  9
$DIMASSOC
280
    1
  9
$PROJECTNAME
  1

  9
$CAMERADISPLAY
290
    0
  9
$LENSLENGTH
 40
50
  9
$CAMERAHEIGHT
 40
0
  9
$STEPSPERSEC
 40
2
  9
$STEPSIZE
 40
50
  9
$3DDWFPREC
 40
2
  9
$PSOLWIDTH
 40
5
  9
$PSOLHEIGHT
 40
80
  9
$LOFTANG1
 40
1.570796326794897
  9
$LOFTANG2
 40
1.570796326794897
  9
$LOFTMAG1
 40
0
  9
$LOFTMAG2
 40
0
  9
$LOFTPARAM
 70
    7
  9
$LOFTNORMALS
280
    1
  9
$LATITUDE
 40
1
  9
$LONGITUDE
 40
1
  9
$NORTHDIRECTION
 40
0
  9
$TIMEZONE
 70
-8000
  9
$LIGHTGLYPHDISPLAY
280
    1
  9
$TILEMODELIGHTSYNCH
280
    1
  9
$SOLIDHIST
280
    1
  9
$SHOWHIST
280
    1
  9
$DWFFRAME
280
    2
  9
$DGNFRAME
280
    0
  9
$REALWORLDSCALE
290
    1
  9
$INTERFERECOLOR
 62
    1
  9
$CSHADOW
280
    0
  9
$SHADOWPLANELOCATION
 40
0
  0
ENDSEC
  0
SECTION
  2
CLASSES
  0
ENDSEC
  0
SECTION
  2
TABLES
  0
TABLE
  2
VPORT
  5
8
330
0
100
AcDbSymbolTable
 70
    1
  0
VPORT
  5
31
330
2
100
AcDbSymbolTableRecord
100
AcDbViewportTableRecord
  2
*ACTIVE
 70
    0
 10
0
 20
0
 11
1
 21
1
 12
158.1363912720391
 22
83.53384123672498
 13
0
 23
0
 14
10
 24
10
 15
10
 25
10
 16
0
 26
0
 36
1
 17
0
 27
0
 37
0
 40
109.6710022526185
 41
1.801197604790419
 42
50
 43
0
 44
0
 50
0
 51
0
 71
    0
 72
  100
 73
    1
 74
    3
 75
    0
 76
    1
 77
    0
 78
    0
281
    0
 65
    1
110
0
120
0
130
0
111
1
121
0
131
0
112
0
122
1
132
0
 79
    0
146
0
348
10020
 60
    7
 61
    5
292
1
282
    1
141
0
142
0
 63
  250
421
3358443
  0
ENDTAB
  0
TABLE
  2
LTYPE
  5
5
330
0
100
AcDbSymbolTable
 70
    4
  0
LTYPE
  5
14
330
5
100
AcDbSymbolTableRecord
100
AcDbLinetypeTableRecord
  2
ByBlock
 70
    0
  3

 72
   65
 73
    0
 40
0
  0
LTYPE
  5
15
330
5
100
AcDbSymbolTableRecord
100
AcDbLinetypeTableRecord
  2
ByLayer
 70
    0
  3

 72
   65
 73
    0
 40
0
  0
LTYPE
  5
16
330
5
100
AcDbSymbolTableRecord
100
AcDbLinetypeTableRecord
  2
Continuous
 70
    0
  3
Solid line
 72
   65
 73
    0
 40
0
  0
LTYPE
  5
32
330
5
100
AcDbSymbolTableRecord
100
AcDbLinetypeTableRecord
  2
DOT
 70
    0
  3
Dot . . . . . . . . . . . . . . . . . . . . . .
 72
   65
 73
    2
 40
6.35
 49
0
 74
    0
 49
-6.35
 74
    0
  0
LTYPE
  5
33
330
5
100
AcDbSymbolTableRecord
100
AcDbLinetypeTableRecord
  2
DOTTINY
 70
    0
  3
Dot (.15x) .....................................
 72
   65
 73
    2
 40
0.9525
 49
0
 74
    0
 49
-0.9525
 74
    0
  0
LTYPE
  5
34
330
5
100
AcDbSymbolTableRecord
100
AcDbLinetypeTableRecord
  2
DOT2
 70
    0
  3
Dot (.5x) .....................................
 72
   65
 73
    2
 40
3.175
 49
0
 74
    0
 49
-3.175
 74
    0
  0
LTYPE
  5
35
330
5
100
AcDbSymbolTableRecord
100
AcDbLinetypeTableRecord
  2
DOTX2
 70
    0
  3
Dot (2x) .  .  .  .  .  .  .  .  .  .  .  .  .
 72
   65
 73
    2
 40
12.7
 49
0
 74
    0
 49
-12.7
 74
    0
  0
LTYPE
  5
36
330
5
100
AcDbSymbolTableRecord
100
AcDbLinetypeTableRecord
  2
DASHED
 70
    0
  3
Dashed _ _ _ _ _ _ _ _ _ _ _ _ _ _ _ _ _
 72
   65
 73
    2
 40
19.05
 49
12.7
 74
    0
 49
-6.35
 74
    0
  0
LTYPE
  5
37
330
5
100
AcDbSymbolTableRecord
100
AcDbLinetypeTableRecord
  2
DASHEDTINY
 70
    0
  3
Dashed (.15x) _ _ _ _ _ _ _ _ _ _ _ _ _ _ _ _ _
 72
   65
 73
    2
 40
2.8575
 49
1.905
 74
    0
 49
-0.9525
 74
    0
  0
LTYPE
  5
38
330
5
100
AcDbSymbolTableRecord
100
AcDbLinetypeTableRecord
  2
DASHED2
 70
    0
  3
Dashed (.5x) _ _ _ _ _ _ _ _ _ _ _ _ _ _ _ _ _
 72
   65
 73
    2
 40
9.524999999999999
 49
6.35
 74
    0
 49
-3.175
 74
    0
  0
LTYPE
  5
39
330
5
100
AcDbSymbolTableRecord
100
AcDbLinetypeTableRecord
  2
DASHEDX2
 70
    0
  3
Dashed (2x) ____  ____  ____  ____  ____  ___
 72
   65
 73
    2
 40
38.09999999999999
 49
25.4
 74
    0
 49
-12.7
 74
    0
  0
LTYPE
  5
3A
330
5
100
AcDbSymbolTableRecord
100
AcDbLinetypeTableRecord
  2
DASHDOT
 70
    0
  3
Dash dot __ . __ . __ . __ . __ . __ . __ . __
 72
   65
 73
    4
 40
25.4
 49
12.7
 74
    0
 49
-6.35
 74
    0
 49
0
 74
    0
 49
-6.35
 74
    0
  0
LTYPE
  5
3B
330
5
100
AcDbSymbolTableRecord
100
AcDbLinetypeTableRecord
  2
DASHDOTTINY
 70
    0
  3
Dash dot (.15x) _._._._._._._._._._._._._._._.
 72
   65
 73
    4
 40
3.81
 49
1.905
 74
    0
 49
-0.9525
 74
    0
 49
0
 74
    0
 49
-0.9525
 74
    0
  0
LTYPE
  5
3C
330
5
100
AcDbSymbolTableRecord
100
AcDbLinetypeTableRecord
  2
DASHDOT2
 70
    0
  3
Dash dot (.5x) _._._._._._._._._._._._._._._.
 72
   65
 73
    4
 40
12.7
 49
6.35
 74
    0
 49
-3.175
 74
    0
 49
0
 74
    0
 49
-3.175
 74
    0
  0
LTYPE
  5
3D
330
5
100
AcDbSymbolTableRecord
100
AcDbLinetypeTableRecord
  2
DASHDOTX2
 70
    0
  3
Dash dot (2x) ____  .  ____  .  ____  .  ___
 72
   65
 73
    4
 40
50.8
 49
25.4
 74
    0
 49
-12.7
 74
    0
 49
0
 74
    0
 49
-12.7
 74
    0
  0
LTYPE
  5
3E
330
5
100
AcDbSymbolTableRecord
100
AcDbLinetypeTableRecord
  2
DIVIDE
 70
    0
  3
Divide ____ . . ____ . . ____ . . ____ . . ____
 72
   65
 73
    6
 40
31.75
 49
12.7
 74
    0
 49
-6.35
 74
    0
 49
0
 74
    0
 49
-6.35
 74
    0
 49
0
 74
    0
 49
-6.35
 74
    0
  0
LTYPE
  5
3F
330
5
100
AcDbSymbolTableRecord
100
AcDbLinetypeTableRecord
  2
DIVIDETINY
 70
    0
  3
Divide (.15x) __..__..__..__..__..__..__..__.._
 72
   65
 73
    6
 40
4.7625
 49
1.905
 74
    0
 49
-0.9525
 74
    0
 49
0
 74
    0
 49
-0.9525
 74
    0
 49
0
 74
    0
 49
-0.9525
 74
    0
  0
LTYPE
  5
40
330
5
100
AcDbSymbolTableRecord
100
AcDbLinetypeTableRecord
  2
DIVIDE2
 70
    0
  3
Divide (.5x) __..__..__..__..__..__..__..__.._
 72
   65
 73
    6
 40
15.875
 49
6.35
 74
    0
 49
-3.175
 74
    0
 49
0
 74
    0
 49
-3.175
 74
    0
 49
0
 74
    0
 49
-3.175
 74
    0
  0
LTYPE
  5
41
330
5
100
AcDbSymbolTableRecord
100
AcDbLinetypeTableRecord
  2
DIVIDEX2
 70
    0
  3
Divide (2x) ________  .  .  ________  .  .  _
 72
   65
 73
    6
 40
63.5
 49
25.4
 74
    0
 49
-12.7
 74
    0
 49
0
 74
    0
 49
-12.7
 74
    0
 49
0
 74
    0
 49
-12.7
 74
    0
  0
LTYPE
  5
42
330
5
100
AcDbSymbolTableRecord
100
AcDbLinetypeTableRecord
  2
BORDER
 70
    0
  3
Border __ __ . __ __ . __ __ . __ __ . __ __ .
 72
   65
 73
    6
 40
44.45
 49
12.7
 74
    0
 49
-6.35
 74
    0
 49
12.7
 74
    0
 49
-6.35
 74
    0
 49
0
 74
    0
 49
-6.35
 74
    0
  0
LTYPE
  5
43
330
5
100
AcDbSymbolTableRecord
100
AcDbLinetypeTableRecord
  2
BORDERTINY
 70
    0
  3
Border (.15x) __.__.__.__.__.__.__.__.__.__.__.
 72
   65
 73
    6
 40
6.6675
 49
1.905
 74
    0
 49
-0.9525
 74
    0
 49
1.905
 74
    0
 49
-0.9525
 74
    0
 49
0
 74
    0
 49
-0.9525
 74
    0
  0
LTYPE
  5
44
330
5
100
AcDbSymbolTableRecord
100
AcDbLinetypeTableRecord
  2
BORDER2
 70
    0
  3
Border (.5x) __.__.__.__.__.__.__.__.__.__.__.
 72
   65
 73
    6
 40
22.225
 49
6.35
 74
    0
 49
-3.175
 74
    0
 49
6.35
 74
    0
 49
-3.175
 74
    0
 49
0
 74
    0
 49
-3.175
 74
    0
  0
LTYPE
  5
45
330
5
100
AcDbSymbolTableRecord
100
AcDbLinetypeTableRecord
  2
BORDERX2
 70
    0
  3
Border (2x) ____  ____  .  ____  ____  .  ___
 72
   65
 73
    6
 40
88.89999999999999
 49
25.4
 74
    0
 49
-12.7
 74
    0
 49
25.4
 74
    0
 49
-12.7
 74
    0
 49
0
 74
    0
 49
-12.7
 74
    0
  0
LTYPE
  5
46
330
5
100
AcDbSymbolTableRecord
100
AcDbLinetypeTableRecord
  2
CENTER
 70
    0
  3
Center ____ _ ____ _ ____ _ ____ _ ____ _ ____
 72
   65
 73
    4
 40
50.8
 49
31.75
 74
    0
 49
-6.35
 74
    0
 49
6.35
 74
    0
 49
-6.35
 74
    0
  0
LTYPE
  5
47
330
5
100
AcDbSymbolTableRecord
100
AcDbLinetypeTableRecord
  2
CENTERTINY
 70
    0
  3
Center (.15x) ___ _ ___ _ ___ _ ___ _ ___ _ ___
 72
   65
 73
    4
 40
7.619999999999999
 49
4.7625
 74
    0
 49
-0.9525
 74
    0
 49
0.9525
 74
    0
 49
-0.9525
 74
    0
  0
LTYPE
  5
48
330
5
100
AcDbSymbolTableRecord
100
AcDbLinetypeTableRecord
  2
CENTER2
 70
    0
  3
Center (.5x) ___ _ ___ _ ___ _ ___ _ ___ _ ___
 72
   65
 73
    4
 40
28.575
 49
19.05
 74
    0
 49
-3.175
 74
    0
 49
3.175
 74
    0
 49
-3.175
 74
    0
  0
LTYPE
  5
49
330
5
100
AcDbSymbolTableRecord
100
AcDbLinetypeTableRecord
  2
CENTERX2
 70
    0
  3
Center (2x) ________  __  ________  __  _____
 72
   65
 73
    4
 40
101.6
 49
63.5
 74
    0
 49
-12.7
 74
    0
 49
12.7
 74
    0
 49
-12.7
 74
    0
  0
ENDTAB
  0
TABLE
  2
LAYER
  5
2
330
0
100
AcDbSymbolTable
 70
    1
  0
LAYER
  5
10
330
2
100
AcDbSymbolTableRecord
100
AcDbLayerTableRecord
  2
0
 70
    1
 62
    7
  6
CONTINUOUS
370
    0
390
F
1001
LibreCad
1070
    1
  0
LAYER
  5
4A
330
2
100
AcDbSymbolTableRecord
100
AcDbLayerTableRecord
  2
Beschriftung
 70
    0
 62
    7
  6
CONTINUOUS
370
    0
390
F
  0
LAYER
  5
4B
330
2
100
AcDbSymbolTableRecord
100
AcDbLayerTableRecord
  2
Hidden
 70
    0
 62
    7
  6
DASHEDTINY
370
   25
390
F
  0
LAYER
  5
4C
330
2
100
AcDbSymbolTableRecord
100
AcDbLayerTableRecord
  2
Kontur
 70
    0
 62
    7
  6
CONTINUOUS
370
    0
390
F
  0
LAYER
  5
4D
330
2
100
AcDbSymbolTableRecord
100
AcDbLayerTableRecord
  2
Langen
 70
    0
 62
    7
  6
CONTINUOUS
370
    5
390
F
  0
LAYER
  5
4E
330
2
100
AcDbSymbolTableRecord
100
AcDbLayerTableRecord
  2
Matrix
 70
    0
 62
    7
  6
CONTINUOUS
370
   25
390
F
  0
LAYER
  5
4F
330
2
100
AcDbSymbolTableRecord
100
AcDbLayerTableRecord
  2
Plexiglas
 70
    0
 62
    7
  6
CONTINUOUS
370
   25
390
F
  0
LAYER
  5
50
330
2
100
AcDbSymbolTableRecord
100
AcDbLayerTableRecord
  2
Seitenansicht
 70
    0
 62
    7
  6
CONTINUOUS
370
   25
390
F
  0
LAYER
  5
51
330
2
100
AcDbSymbolTableRecord
100
AcDbLayerTableRecord
  2
Wellplate
 70
    0
 62
    7
  6
CONTINUOUS
370
   25
390
F
  0
ENDTAB
  0
TABLE
  2
STYLE
  5
3
330
0
100
AcDbSymbolTable
 70
    3
  0
STYLE
  5
52
330
2
100
AcDbSymbolTableRecord
100
AcDbTextStyleTableRecord
  2
standard
 70
    0
 40
0
 41
1
 50
0
 71
    0
 42
1
  3
standard
  4

  0
ENDTAB
  0
TABLE
  2
VIEW
  5
6
330
0
100
AcDbSymbolTable
 70
    0
  0
ENDTAB
  0
TABLE
  2
UCS
  5
7
330
0
100
AcDbSymbolTable
 70
    0
  0
ENDTAB
  0
TABLE
  2
APPID
  5
9
330
0
100
AcDbSymbolTable
 70
    1
  0
APPID
  5
12
330
9
100
AcDbSymbolTableRecord
100
AcDbRegAppTableRecord
  2
ACAD
 70
    0
  0
APPID
  5
53
330
9
100
AcDbSymbolTableRecord
100
AcDbRegAppTableRecord
  2
LibreCad
 70
    0
  0
ENDTAB
  0
TABLE
  2
DIMSTYLE
  5
A
330
0
100
AcDbSymbolTable
 70
    1
100
AcDbDimStyleTable
 71
    1
  0
DIMSTYLE
105
54
330
A
100
AcDbSymbolTableRecord
100
AcDbDimStyleTableRecord
  2
Standard
 70
    0
 40
1
 41
2.5
 42
0.625
 43
0.38
 44
1.25
 45
0
 46
0
 47
0
 48
0
 49
1
140
2.5
141
0.09
142
0
143
25.4
144
1
145
0
146
1
147
0.625
148
0
 71
    0
 72
    0
 73
    0
 74
    1
 75
    0
 76
    0
 77
    0
 78
    8
 79
    0
170
    0
171
    2
172
    0
173
    0
174
    0
175
    0
176
    0
177
    0
178
    0
179
    0
271
    2
272
    4
273
    2
274
    2
275
    0
276
    0
277
    2
278
   44
279
    0
280
    0
281
    0
282
    0
283
    1
284
    0
285
    0
286
    0
288
    0
289
    3
340
standard
341

371
   -2
372
   -2
  0
ENDTAB
  0
TABLE
  2
BLOCK_RECORD
  5
1
330
0
100
AcDbSymbolTable
 70
    2
  0
BLOCK_RECORD
  5
1F
330
1
100
AcDbSymbolTableRecord
100
AcDbBlockTableRecord
  2
*Model_Space
 70
    0
280
    1
281
    0
  0
BLOCK_RECORD
  5
1E
330
1
100
AcDbSymbolTableRecord
100
AcDbBlockTableRecord
  2
*Paper_Space
 70
    0
280
    1
281
    0
  0
BLOCK_RECORD
  5
55
330
1
100
AcDbSymbolTableRecord
100
AcDbBlockTableRecord
  2
*D4
 70
    0
280
    1
281
    0
  0
BLOCK_RECORD
  5
58
330
1
100
AcDbSymbolTableRecord
100
AcDbBlockTableRecord
  2
*D22
 70
    0
280
    1
281
    0
  0
BLOCK_RECORD
  5
5B
330
1
100
AcDbSymbolTableRecord
100
AcDbBlockTableRecord
  2
*D23
 70
    0
280
    1
281
    0
  0
BLOCK_RECORD
  5
5E
330
1
100
AcDbSymbolTableRecord
100
AcDbBlockTableRecord
  2
*D28
 70
    0
280
    1
281
    0
  0
BLOCK_RECORD
  5
61
330
1
100
AcDbSymbolTableRecord
100
AcDbBlockTableRecord
  2
*D19
 70
    0
280
    1
281
    0
  0
BLOCK_RECORD
  5
64
330
1
100
AcDbSymbolTableRecord
100
AcDbBlockTableRecord
  2
*D2
 70
    0
280
    1
281
    0
  0
BLOCK_RECORD
  5
67
330
1
100
AcDbSymbolTableRecord
100
AcDbBlockTableRecord
  2
*D17
 70
    0
280
    1
281
    0
  0
BLOCK_RECORD
  5
6A
330
1
100
AcDbSymbolTableRecord
100
AcDbBlockTableRecord
  2
*D20
 70
    0
280
    1
281
    0
  0
BLOCK_RECORD
  5
6D
330
1
100
AcDbSymbolTableRecord
100
AcDbBlockTableRecord
  2
*D15
 70
    0
280
    1
281
    0
  0
BLOCK_RECORD
  5
70
330
1
100
AcDbSymbolTableRecord
100
AcDbBlockTableRecord
  2
*D27
 70
    0
280
    1
281
    0
  0
BLOCK_RECORD
  5
73
330
1
100
AcDbSymbolTableRecord
100
AcDbBlockTableRecord
  2
*D9
 70
    0
280
    1
281
    0
  0
BLOCK_RECORD
  5
76
330
1
100
AcDbSymbolTableRecord
100
AcDbBlockTableRecord
  2
*D13
 70
    0
280
    1
281
    0
  0
BLOCK_RECORD
  5
79
330
1
100
AcDbSymbolTableRecord
100
AcDbBlockTableRecord
  2
*D30
 70
    0
280
    1
281
    0
  0
BLOCK_RECORD
  5
7C
330
1
100
AcDbSymbolTableRecord
100
AcDbBlockTableRecord
  2
*D7
 70
    0
280
    1
281
    0
  0
BLOCK_RECORD
  5
7F
330
1
100
AcDbSymbolTableRecord
100
AcDbBlockTableRecord
  2
*D29
 70
    0
280
    1
281
    0
  0
BLOCK_RECORD
  5
82
330
1
100
AcDbSymbolTableRecord
100
AcDbBlockTableRecord
  2
*D18
 70
    0
280
    1
281
    0
  0
BLOCK_RECORD
  5
85
330
1
100
AcDbSymbolTableRecord
100
AcDbBlockTableRecord
  2
*D3
 70
    0
280
    1
281
    0
  0
BLOCK_RECORD
  5
88
330
1
100
AcDbSymbolTableRecord
100
AcDbBlockTableRecord
  2
*D12
 70
    0
280
    1
281
    0
  0
BLOCK_RECORD
  5
8B
330
1
100
AcDbSymbolTableRecord
100
AcDbBlockTableRecord
  2
*D26
 70
    0
280
    1
281
    0
  0
BLOCK_RECORD
  5
8E
330
1
100
AcDbSymbolTableRecord
100
AcDbBlockTableRecord
  2
*D5
 70
    0
280
    1
281
    0
  0
BLOCK_RECORD
  5
91
330
1
100
AcDbSymbolTableRecord
100
AcDbBlockTableRecord
  2
*D21
 70
    0
280
    1
281
    0
  0
BLOCK_RECORD
  5
94
330
1
100
AcDbSymbolTableRecord
100
AcDbBlockTableRecord
  2
*D24
 70
    0
280
    1
281
    0
  0
BLOCK_RECORD
  5
97
330
1
100
AcDbSymbolTableRecord
100
AcDbBlockTableRecord
  2
*D25
 70
    0
280
    1
281
    0
  0
BLOCK_RECORD
  5
9A
330
1
100
AcDbSymbolTableRecord
100
AcDbBlockTableRecord
  2
*D10
 70
    0
280
    1
281
    0
  0
BLOCK_RECORD
  5
9D
330
1
100
AcDbSymbolTableRecord
100
AcDbBlockTableRecord
  2
*D6
 70
    0
280
    1
281
    0
  0
BLOCK_RECORD
  5
A0
330
1
100
AcDbSymbolTableRecord
100
AcDbBlockTableRecord
  2
*D14
 70
    0
280
    1
281
    0
  0
BLOCK_RECORD
  5
A3
330
1
100
AcDbSymbolTableRecord
100
AcDbBlockTableRecord
  2
*D11
 70
    0
280
    1
281
    0
  0
BLOCK_RECORD
  5
A6
330
1
100
AcDbSymbolTableRecord
100
AcDbBlockTableRecord
  2
*D8
 70
    0
280
    1
281
    0
  0
BLOCK_RECORD
  5
A9
330
1
100
AcDbSymbolTableRecord
100
AcDbBlockTableRecord
  2
*D1
 70
    0
280
    1
281
    0
  0
BLOCK_RECORD
  5
AC
330
1
100
AcDbSymbolTableRecord
100
AcDbBlockTableRecord
  2
*D16
 70
    0
280
    1
281
    0
  0
ENDTAB
  0
ENDSEC
  0
SECTION
  2
BLOCKS
  0
BLOCK
  5
20
330
1F
100
AcDbEntity
  8
0
100
AcDbBlockBegin
  2
*Model_Space
 70
    0
 10
0
 20
0
 30
0
  3
*Model_Space
  1

  0
ENDBLK
  5
21
330
1F
100
AcDbEntity
  8
0
100
AcDbBlockEnd
  0
BLOCK
  5
1C
330
1B
100
AcDbEntity
  8
0
100
AcDbBlockBegin
  2
*Paper_Space
 70
    0
 10
0
 20
0
 30
0
  3
*Paper_Space
  1

  0
ENDBLK
  5
1D
330
1F
100
AcDbEntity
  8
0
100
AcDbBlockEnd
  0
BLOCK
  5
56
330
55
100
AcDbEntity
  8
0
100
AcDbBlockBegin
  2
*D4
 70
    1
 10
0
 20
0
  3
*D4
  1

  0
LINE
  5
AF
100
AcDbEntity
  8
Langen
  6
ByBlock
 62
    0
370
   -2
100
AcDbLine
 10
-10
 20
123.525
 11
-10
 21
131.25
  0
LINE
  5
B0
100
AcDbEntity
  8
Langen
  6
ByBlock
 62
    0
370
   -2
100
AcDbLine
 10
201.5
 20
123.525
 11
201.5
 21
131.25
  0
LINE
  5
B1
100
AcDbEntity
  8
Langen
  6
ByBlock
 62
    0
370
   -2
100
AcDbLine
 10
-10
 20
130
 11
201.5
 21
130
  0
SOLID
  5
B2
100
AcDbEntity
  8
Langen
  6
ByBlock
 62
    0
370
   -2
100
AcDbTrace
 10
-10
 20
130
 30
0
 11
-7.5
 21
130.4162846577728
 31
0
 12
-7.5
 22
129.5837153422272
 32
0
 13
-7.5
 23
129.5837153422272
 33
0
  0
SOLID
  5
B3
100
AcDbEntity
  8
Langen
  6
ByBlock
 62
    0
370
   -2
100
AcDbTrace
 10
201.5
 20
130
 30
0
 11
199
 21
129.5837153422272
 31
0
 12
199
 22
130.4162846577728
 32
0
 13
199
 23
130.4162846577728
 33
0
  0
MTEXT
  5
B4
100
AcDbEntity
  8
Langen
  6
CONTINUOUS
 62
    0
370
   -2
100
AcDbMText
 10
95.75
 20
131.875
 30
0
 40
2.5
 41
6.80555555555571
 71
    5
 72
    1
  1
211,5
  7
standard
210
0
220
0
230
1
 50
0
 73
    2
 44
1
  0
ENDBLK
  5
57
330
55
100
AcDbEntity
  8
0
100
AcDbBlockEnd
  0
BLOCK
  5
59
330
58
100
AcDbEntity
  8
0
100
AcDbBlockBegin
  2
*D22
 70
    1
 10
0
 20
0
  3
*D22
  1

  0
LINE
  5
B5
100
AcDbEntity
  8
Langen
  6
ByBlock
 62
    0
370
   -2
100
AcDbLine
 10
220
 20
-30
 11
230
 21
-30
  0
SOLID
  5
B6
100
AcDbEntity
  8
Langen
  6
ByBlock
 62
    0
370
   -2
100
AcDbTrace
 10
220
 20
-30
 30
0
 11
222.5
 21
-29.58371534222716
 31
0
 12
222.5
 22
-30.41628465777284
 32
0
 13
222.5
 23
-30.41628465777284
 33
0
  0
SOLID
  5
B7
100
AcDbEntity
  8
Langen
  6
ByBlock
 62
    0
370
   -2
100
AcDbTrace
 10
230
 20
-30
 30
0
 11
227.5
 21
-30.41628465777284
 31
0
 12
227.5
 22
-29.58371534222716
 32
0
 13
227.5
 23
-29.58371534222716
 33
0
  0
MTEXT
  5
B8
100
AcDbEntity
  8
Langen
  6
CONTINUOUS
 62
    0
370
   -2
100
AcDbMText
 10
225
 20
-28.125
 30
0
 40
2.5
 41
2.5
 71
    5
 72
    1
  1
10
  7
standard
210
0
220
0
230
1
 50
0
 73
    2
 44
1
  0
LINE
  5
B9
100
AcDbEntity
  8
Langen
  6
ByBlock
 62
    0
370
   -2
100
AcDbLine
 10
220
 20
-25.325
 11
220
 21
-31.25
  0
LINE
  5
BA
100
AcDbEntity
  8
Langen
  6
ByBlock
 62
    0
370
   -2
100
AcDbLine
 10
230
 20
-25.325
 11
230
 21
-31.25
  0
ENDBLK
  5
5A
330
58
100
AcDbEntity
  8
0
100
AcDbBlockEnd
  0
BLOCK
  5
5C
330
5B
100
AcDbEntity
  8
0
100
AcDbBlockBegin
  2
*D23
 70
    1
 10
0
 20
0
  3
*D23
  1

  0
LINE
  5
BB
100
AcDbEntity
  8
Langen
  6
ByBlock
 62
    0
370
   -2
100
AcDbLine
 10
235
 20
-24.7
 11
235
 21
-0.175
  0
SOLID
  5
BC
100
AcDbEntity
  8
Langen
  6
ByBlock
 62
    0
370
   -2
100
AcDbTrace
 10
235
 20
-24.7
 30
0
 11
234.5837153422272
 21
-22.2
 31
0
 12
235.4162846577728
 22
-22.2
 32
0
 13
235.4162846577728
 23
-22.2
 33
0
  0
SOLID
  5
BD
100
AcDbEntity
  8
Langen
  6
ByBlock
 62
    0
370
   -2
100
AcDbTrace
 10
235
 20
-0.175
 30
0
 11
235.4162846577728
 21
-2.675
 31
0
 12
234.5837153422272
 22
-2.675
 32
0
 13
234.5837153422272
 23
-2.675
 33
0
  0
MTEXT
  5
BE
100
AcDbEntity
  8
Langen
  6
CONTINUOUS
 62
    0
370
   -2
100
AcDbMText
 10
233.125
 20
-12.4375
 30
0
 40
2.5
 41
8.194444444444599
 71
    5
 72
    1
  1
24,52
  7
standard
210
0
220
0
230
1
 50
90
 73
    2
 44
1
  0
LINE
  5
BF
100
AcDbEntity
  8
Langen
  6
ByBlock
 62
    0
370
   -2
100
AcDbLine
 10
230.625
 20
-24.7
 11
236.25
 21
-24.7
  0
LINE
  5
C0
100
AcDbEntity
  8
Langen
  6
ByBlock
 62
    0
370
   -2
100
AcDbLine
 10
230.625
 20
-0.175
 11
236.25
 21
-0.175
  0
ENDBLK
  5
5D
330
5B
100
AcDbEntity
  8
0
100
AcDbBlockEnd
  0
BLOCK
  5
5F
330
5E
100
AcDbEntity
  8
0
100
AcDbBlockBegin
  2
*D28
 70
    1
 10
0
 20
0
  3
*D28
  1

  0
LINE
  5
C1
100
AcDbEntity
  8
Langen
  6
ByBlock
 62
    0
370
   -2
100
AcDbLine
 10
19.87880627646688
 20
113.1
 11
19.87880627646688
 21
122.9
  0
SOLID
  5
C2
100
AcDbEntity
  8
Langen
  6
ByBlock
 62
    0
370
   -2
100
AcDbTrace
 10
19.87880627646688
 20
113.1
 30
0
 11
19.46252161869404
 21
115.6
 31
0
 12
20.29509093423972
 22
115.6
 32
0
 13
20.29509093423972
 23
115.6
 33
0
  0
SOLID
  5
C3
100
AcDbEntity
  8
Langen
  6
ByBlock
 62
    0
370
   -2
100
AcDbTrace
 10
19.87880627646688
 20
122.9
 30
0
 11
20.29509093423972
 21
120.4
 31
0
 12
19.46252161869404
 22
120.4
 32
0
 13
19.46252161869404
 23
120.4
 33
0
  0
MTEXT
  5
C4
100
AcDbEntity
  8
Langen
  6
CONTINUOUS
 62
    0
370
   -2
100
AcDbMText
 10
18.00380627646688
 20
118
 30
0
 40
2.5
 41
4.027777777777933
 71
    5
 72
    1
  1
9,8
  7
standard
210
0
220
0
230
1
 50
90
 73
    2
 44
1
  0
LINE
  5
C5
100
AcDbEntity
  8
Langen
  6
ByBlock
 62
    0
370
   -2
100
AcDbLine
 10
19.31459773296984
 20
113.1
 11
18.62880627646688
 21
113.1
  0
LINE
  5
C6
100
AcDbEntity
  8
Langen
  6
ByBlock
 62
    0
370
   -2
100
AcDbLine
 10
7.798391867348897
 20
122.9
 11
21.12880627646688
 21
122.9
  0
ENDBLK
  5
60
330
5E
100
AcDbEntity
  8
0
100
AcDbBlockEnd
  0
BLOCK
  5
62
330
61
100
AcDbEntity
  8
0
100
AcDbBlockBegin
  2
*D19
 70
    1
 10
0
 20
0
  3
*D19
  1

  0
LINE
  5
C7
100
AcDbEntity
  8
Langen
  6
ByBlock
 62
    0
370
   -2
100
AcDbLine
 10
20.00000000000001
 20
95.925
 11
20
 21
-0.1750000000000002
  0
SOLID
  5
C8
100
AcDbEntity
  8
Langen
  6
ByBlock
 62
    0
370
   -2
100
AcDbTrace
 10
20.00000000000001
 20
95.925
 30
0
 11
20.41628465777285
 21
93.425
 31
0
 12
19.58371534222717
 22
93.425
 32
0
 13
19.58371534222717
 23
93.425
 33
0
  0
SOLID
  5
C9
100
AcDbEntity
  8
Langen
  6
ByBlock
 62
    0
370
   -2
100
AcDbTrace
 10
20
 20
-0.1750000000000002
 30
0
 11
19.58371534222716
 21
2.325
 31
0
 12
20.41628465777284
 22
2.325
 32
0
 13
20.41628465777284
 23
2.325
 33
0
  0
MTEXT
  5
CA
100
AcDbEntity
  8
Langen
  6
CONTINUOUS
 62
    0
370
   -2
100
AcDbMText
 10
17
 20
15
 30
0
 40
2.5
 41
5.416666666666978
 71
    5
 72
    1
  1
96,1
  7
standard
210
0
220
0
230
1
 50
90
 73
    2
 44
1
  0
LINE
  5
CB
100
AcDbEntity
  8
Langen
  6
ByBlock
 62
    0
370
   -2
100
AcDbLine
 10
19.46376446788656
 20
95.925
 11
21.25000000000001
 21
95.925
  0
LINE
  5
CC
100
AcDbEntity
  8
Langen
  6
ByBlock
 62
    0
370
   -2
100
AcDbLine
 10
16.95192920550169
 20
-0.175
 11
21.25
 21
-0.1750000000000002
  0
ENDBLK
  5
63
330
61
100
AcDbEntity
  8
0
100
AcDbBlockEnd
  0
BLOCK
  5
65
330
64
100
AcDbEntity
  8
0
100
AcDbBlockBegin
  2
*D2
 70
    1
 10
0
 20
0
  3
*D2
  1

  0
LINE
  5
CD
100
AcDbEntity
  8
Langen
  6
ByBlock
 62
    0
370
   -2
100
AcDbLine
 10
99.67500000000001
 20
-14.7
 11
100.3
 21
-14.7
  0
LINE
  5
CE
100
AcDbEntity
  8
Langen
  6
ByBlock
 62
    0
370
   -2
100
AcDbLine
 10
185.425
 20
-14.7
 11
186.05
 21
-14.7
  0
LINE
  5
CF
100
AcDbEntity
  8
Langen
  6
ByBlock
 62
    0
370
   -2
100
AcDbLine
 10
99.05000000000001
 20
-14.7
 11
184.8
 21
-14.7
  0
SOLID
  5
D0
100
AcDbEntity
  8
Langen
  6
ByBlock
 62
    0
370
   -2
100
AcDbTrace
 10
99.05000000000001
 20
-14.7
 30
0
 11
101.55
 21
-14.28371534222716
 31
0
 12
101.55
 22
-15.11628465777284
 32
0
 13
101.55
 23
-15.11628465777284
 33
0
  0
SOLID
  5
D1
100
AcDbEntity
  8
Langen
  6
ByBlock
 62
    0
370
   -2
100
AcDbTrace
 10
184.8
 20
-14.7
 30
0
 11
182.3
 21
-15.11628465777284
 31
0
 12
182.3
 22
-14.28371534222716
 32
0
 13
182.3
 23
-14.28371534222716
 33
0
  0
MTEXT
  5
D2
100
AcDbEntity
  8
Langen
  6
CONTINUOUS
 62
    0
370
   -2
100
AcDbMText
 10
141.925
 20
-12.825
 30
0
 40
2.5
 41
7.916666666666977
 71
    5
 72
    1
  1
85,75
  7
standard
210
0
220
0
230
1
 50
0
 73
    2
 44
1
  0
ENDBLK
  5
66
330
64
100
AcDbEntity
  8
0
100
AcDbBlockEnd
  0
BLOCK
  5
68
330
67
100
AcDbEntity
  8
0
100
AcDbBlockBegin
  2
*D17
 70
    1
 10
0
 20
0
  3
*D17
  1

  0
LINE
  5
D3
100
AcDbEntity
  8
Langen
  6
ByBlock
 62
    0
370
   -2
100
AcDbLine
 10
20
 20
-14.7
 11
20
 21
-24.7
  0
SOLID
  5
D4
100
AcDbEntity
  8
Langen
  6
ByBlock
 62
    0
370
   -2
100
AcDbTrace
 10
20
 20
-14.7
 30
0
 11
20.41628465777284
 21
-17.2
 31
0
 12
19.58371534222716
 22
-17.2
 32
0
 13
19.58371534222716
 23
-17.2
 33
0
  0
SOLID
  5
D5
100
AcDbEntity
  8
Langen
  6
ByBlock
 62
    0
370
   -2
100
AcDbTrace
 10
20
 20
-24.7
 30
0
 11
19.58371534222716
 21
-22.2
 31
0
 12
20.41628465777284
 22
-22.2
 32
0
 13
20.41628465777284
 23
-22.2
 33
0
  0
MTEXT
  5
D6
100
AcDbEntity
  8
Langen
  6
CONTINUOUS
 62
    0
370
   -2
100
AcDbMText
 10
18.125
 20
-19.7
 30
0
 40
2.5
 41
2.5
 71
    5
 72
    1
  1
10
  7
standard
210
0
220
0
230
1
 50
90
 73
    2
 44
1
  0
LINE
  5
D7
100
AcDbEntity
  8
Langen
  6
ByBlock
 62
    0
370
   -2
100
AcDbLine
 10
19.77774387568467
 20
-14.7
 11
21.25
 21
-14.7
  0
LINE
  5
D8
100
AcDbEntity
  8
Langen
  6
ByBlock
 62
    0
370
   -2
100
AcDbLine
 10
16.95192920550169
 20
-24.7
 11
21.25
 21
-24.7
  0
ENDBLK
  5
69
330
67
100
AcDbEntity
  8
0
100
AcDbBlockEnd
  0
BLOCK
  5
6B
330
6A
100
AcDbEntity
  8
0
100
AcDbBlockBegin
  2
*D20
 70
    1
 10
0
 20
0
  3
*D20
  1

  0
LINE
  5
D9
100
AcDbEntity
  8
Langen
  6
ByBlock
 62
    0
370
   -2
100
AcDbLine
 10
-10
 20
-65
 11
-0.3000000000000095
 21
-65
  0
SOLID
  5
DA
100
AcDbEntity
  8
Langen
  6
ByBlock
 62
    0
370
   -2
100
AcDbTrace
 10
-10
 20
-65
 30
0
 11
-7.5
 21
-64.58371534222717
 31
0
 12
-7.5
 22
-65.41628465777283
 32
0
 13
-7.5
 23
-65.41628465777283
 33
0
  0
SOLID
  5
DB
100
AcDbEntity
  8
Langen
  6
ByBlock
 62
    0
370
   -2
100
AcDbTrace
 10
-0.3000000000000095
 20
-65
 30
0
 11
-2.80000000000001
 21
-65.41628465777283
 31
0
 12
-2.80000000000001
 22
-64.58371534222717
 32
0
 13
-2.80000000000001
 23
-64.58371534222717
 33
0
  0
MTEXT
  5
DC
100
AcDbEntity
  8
Langen
  6
CONTINUOUS
 62
    0
370
   -2
100
AcDbMText
 10
-5.150000000000005
 20
-63.125
 30
0
 40
2.5
 41
4.027777777777933
 71
    5
 72
    1
  1
9,7
  7
standard
210
0
220
0
230
1
 50
0
 73
    2
 44
1
  0
LINE
  5
DD
100
AcDbEntity
  8
Langen
  6
ByBlock
 62
    0
370
   -2
100
AcDbLine
 10
-10
 20
-60.625
 11
-10
 21
-66.25
  0
LINE
  5
DE
100
AcDbEntity
  8
Langen
  6
ByBlock
 62
    0
370
   -2
100
AcDbLine
 10
-0.3000000000000096
 20
-60.625
 11
-0.3000000000000097
 21
-66.25
  0
ENDBLK
  5
6C
330
6A
100
AcDbEntity
  8
0
100
AcDbBlockEnd
  0
BLOCK
  5
6E
330
6D
100
AcDbEntity
  8
0
100
AcDbBlockBegin
  2
*D15
 70
    1
 10
0
 20
0
  3
*D15
  1

  0
LINE
  5
DF
100
AcDbEntity
  8
Langen
  6
ByBlock
 62
    0
370
   -2
100
AcDbLine
 10
184.8
 20
40
 11
201.5
 21
40
  0
SOLID
  5
E0
100
AcDbEntity
  8
Langen
  6
ByBlock
 62
    0
370
   -2
100
AcDbTrace
 10
184.8
 20
40
 30
0
 11
187.3
 21
40.41628465777284
 31
0
 12
187.3
 22
39.58371534222716
 32
0
 13
187.3
 23
39.58371534222716
 33
0
  0
SOLID
  5
E1
100
AcDbEntity
  8
Langen
  6
ByBlock
 62
    0
370
   -2
100
AcDbTrace
 10
201.5
 20
40
 30
0
 11
199
 21
39.58371534222716
 31
0
 12
199
 22
40.41628465777284
 32
0
 13
199
 23
40.41628465777284
 33
0
  0
MTEXT
  5
E2
100
AcDbEntity
  8
Langen
  6
CONTINUOUS
 62
    0
370
   -2
100
AcDbMText
 10
193.15
 20
41.875
 30
0
 40
2.5
 41
5.416666666666822
 71
    5
 72
    1
  1
16,7
  7
standard
210
0
220
0
230
1
 50
0
 73
    2
 44
1
  0
LINE
  5
E3
100
AcDbEntity
  8
Langen
  6
ByBlock
 62
    0
370
   -2
100
AcDbLine
 10
184.8
 20
37.04661130458069
 11
184.8
 21
41.25
  0
LINE
  5
E4
100
AcDbEntity
  8
Langen
  6
ByBlock
 62
    0
370
   -2
100
AcDbLine
 10
201.5
 20
36.10467308118636
 11
201.5
 21
41.25
  0
ENDBLK
  5
6F
330
6D
100
AcDbEntity
  8
0
100
AcDbBlockEnd
  0
BLOCK
  5
71
330
70
100
AcDbEntity
  8
0
100
AcDbBlockBegin
  2
*D27
 70
    1
 10
0
 20
0
  3
*D27
  1

  0
LINE
  5
E5
100
AcDbEntity
  8
Langen
  6
ByBlock
 62
    0
370
   -2
100
AcDbLine
 10
84.85678576445576
 20
-14.7
 11
84.85678576445576
 21
113.1
  0
SOLID
  5
E6
100
AcDbEntity
  8
Langen
  6
ByBlock
 62
    0
370
   -2
100
AcDbTrace
 10
84.85678576445576
 20
-14.7
 30
0
 11
84.44050110668293
 21
-12.2
 31
0
 12
85.2730704222286
 22
-12.2
 32
0
 13
85.2730704222286
 23
-12.2
 33
0
  0
SOLID
  5
E7
100
AcDbEntity
  8
Langen
  6
ByBlock
 62
    0
370
   -2
100
AcDbTrace
 10
84.85678576445576
 20
113.1
 30
0
 11
85.2730704222286
 21
110.6
 31
0
 12
84.44050110668293
 22
110.6
 32
0
 13
84.44050110668293
 23
110.6
 33
0
  0
MTEXT
  5
E8
100
AcDbEntity
  8
Langen
  6
CONTINUOUS
 62
    0
370
   -2
100
AcDbMText
 10
82.98178576445576
 20
49.2
 30
0
 40
2.5
 41
7.361111111111112
 71
    5
 72
    1
  1
127,8
  7
standard
210
0
220
0
230
1
 50
90
 73
    2
 44
1
  0
LINE
  5
E9
100
AcDbEntity
  8
Langen
  6
ByBlock
 62
    0
370
   -2
100
AcDbLine
 10
84.23178576445576
 20
-14.7
 11
83.60678576445576
 21
-14.7
  0
LINE
  5
EA
100
AcDbEntity
  8
Langen
  6
ByBlock
 62
    0
370
   -2
100
AcDbLine
 10
84.23178576445576
 20
113.1
 11
83.60678576445576
 21
113.1
  0
ENDBLK
  5
72
330
70
100
AcDbEntity
  8
0
100
AcDbBlockEnd
  0
BLOCK
  5
74
330
73
100
AcDbEntity
  8
0
100
AcDbBlockBegin
  2
*D9
 70
    1
 10
0
 20
0
  3
*D9
  1

  0
LINE
  5
EB
100
AcDbEntity
  8
Langen
  6
ByBlock
 62
    0
370
   -2
100
AcDbLine
 10
99.05000000000001
 20
-45
 11
92.45
 21
-45
  0
SOLID
  5
EC
100
AcDbEntity
  8
Langen
  6
ByBlock
 62
    0
370
   -2
100
AcDbTrace
 10
99.05000000000001
 20
-45
 30
0
 11
96.55000000000001
 21
-45.41628465777284
 31
0
 12
96.55000000000001
 22
-44.58371534222716
 32
0
 13
96.55000000000001
 23
-44.58371534222716
 33
0
  0
SOLID
  5
ED
100
AcDbEntity
  8
Langen
  6
ByBlock
 62
    0
370
   -2
100
AcDbTrace
 10
92.45
 20
-45
 30
0
 11
94.95
 21
-44.58371534222716
 31
0
 12
94.95
 22
-45.41628465777284
 32
0
 13
94.95
 23
-45.41628465777284
 33
0
  0
MTEXT
  5
EE
100
AcDbEntity
  8
Langen
  6
CONTINUOUS
 62
    0
370
   -2
100
AcDbMText
 10
95.75
 20
-43.125
 30
0
 40
2.5
 41
4.027777777778088
 71
    5
 72
    1
  1
6,6
  7
standard
210
0
220
0
230
1
 50
360
 73
    2
 44
1
  0
LINE
  5
EF
100
AcDbEntity
  8
Langen
  6
ByBlock
 62
    0
370
   -2
100
AcDbLine
 10
99.05000000000001
 20
-49.375
 11
99.05000000000001
 21
-43.75
  0
LINE
  5
F0
100
AcDbEntity
  8
Langen
  6
ByBlock
 62
    0
370
   -2
100
AcDbLine
 10
92.45
 20
-49.375
 11
92.45
 21
-43.75
  0
ENDBLK
  5
75
330
73
100
AcDbEntity
  8
0
100
AcDbBlockEnd
  0
BLOCK
  5
77
330
76
100
AcDbEntity
  8
0
100
AcDbBlockBegin
  2
*D13
 70
    1
 10
0
 20
0
  3
*D13
  1

  0
LINE
  5
F1
100
AcDbEntity
  8
Langen
  6
ByBlock
 62
    0
370
   -2
100
AcDbLine
 10
191.8
 20
50
 11
201.5
 21
50
  0
SOLID
  5
F2
100
AcDbEntity
  8
Langen
  6
ByBlock
 62
    0
370
   -2
100
AcDbTrace
 10
191.8
 20
50
 30
0
 11
194.3
 21
50.41628465777284
 31
0
 12
194.3
 22
49.58371534222716
 32
0
 13
194.3
 23
49.58371534222716
 33
0
  0
SOLID
  5
F3
100
AcDbEntity
  8
Langen
  6
ByBlock
 62
    0
370
   -2
100
AcDbTrace
 10
201.5
 20
50
 30
0
 11
199
 21
49.58371534222716
 31
0
 12
199
 22
50.41628465777284
 32
0
 13
199
 23
50.41628465777284
 33
0
  0
MTEXT
  5
F4
100
AcDbEntity
  8
Langen
  6
CONTINUOUS
 62
    0
370
   -2
100
AcDbMText
 10
196.65
 20
51.875
 30
0
 40
2.5
 41
4.027777777777933
 71
    5
 72
    1
  1
9,7
  7
standard
210
0
220
0
230
1
 50
0
 73
    2
 44
1
  0
LINE
  5
F5
100
AcDbEntity
  8
Langen
  6
ByBlock
 62
    0
370
   -2
100
AcDbLine
 10
191.8
 20
49.91976702430317
 11
191.8
 21
51.25
  0
LINE
  5
F6
100
AcDbEntity
  8
Langen
  6
ByBlock
 62
    0
370
   -2
100
AcDbLine
 10
201.5
 20
50.54772583989939
 11
201.5
 21
51.25
  0
ENDBLK
  5
78
330
76
100
AcDbEntity
  8
0
100
AcDbBlockEnd
  0
BLOCK
  5
7A
330
79
100
AcDbEntity
  8
0
100
AcDbBlockBegin
  2
*D30
 70
    1
 10
0
 20
0
  3
*D30
  1

  0
LINE
  5
F7
100
AcDbEntity
  8
Langen
  6
ByBlock
 62
    0
370
   -2
100
AcDbLine
 10
215
 20
122.9
 11
215
 21
113.1
  0
SOLID
  5
F8
100
AcDbEntity
  8
Langen
  6
ByBlock
 62
    0
370
   -2
100
AcDbTrace
 10
215
 20
122.9
 30
0
 11
215.4162846577728
 21
120.4
 31
0
 12
214.5837153422272
 22
120.4
 32
0
 13
214.5837153422272
 23
120.4
 33
0
  0
SOLID
  5
F9
100
AcDbEntity
  8
Langen
  6
ByBlock
 62
    0
370
   -2
100
AcDbTrace
 10
215
 20
113.1
 30
0
 11
214.5837153422272
 21
115.6
 31
0
 12
215.4162846577728
 22
115.6
 32
0
 13
215.4162846577728
 23
115.6
 33
0
  0
MTEXT
  5
FA
100
AcDbEntity
  8
Langen
  6
CONTINUOUS
 62
    0
370
   -2
100
AcDbMText
 10
213.125
 20
118
 30
0
 40
2.5
 41
4.027777777777933
 71
    5
 72
    1
  1
9,8
  7
standard
210
0
220
0
230
1
 50
90
 73
    2
 44
1
  0
LINE
  5
FB
100
AcDbEntity
  8
Langen
  6
ByBlock
 62
    0
370
   -2
100
AcDbLine
 10
219.375
 20
122.9
 11
213.75
 21
122.9
  0
LINE
  5
FC
100
AcDbEntity
  8
Langen
  6
ByBlock
 62
    0
370
   -2
100
AcDbLine
 10
219.375
 20
113.1
 11
213.75
 21
113.1
  0
ENDBLK
  5
7B
330
79
100
AcDbEntity
  8
0
100
AcDbBlockEnd
  0
BLOCK
  5
7D
330
7C
100
AcDbEntity
  8
0
100
AcDbBlockBegin
  2
*D7
 70
    1
 10
0
 20
0
  3
*D7
  1

  0
LINE
  5
FD
100
AcDbEntity
  8
Langen
  6
ByBlock
 62
    0
370
   -2
100
AcDbLine
 10
-20
 20
-50
 11
-20
 21
-65
  0
SOLID
  5
FE
100
AcDbEntity
  8
Langen
  6
ByBlock
 62
    0
370
   -2
100
AcDbTrace
 10
-20
 20
-55
 30
0
 11
-20.41628465777284
 21
-52.5
 31
0
 12
-19.58371534222716
 22
-52.5
 32
0
 13
-19.58371534222716
 23
-52.5
 33
0
  0
SOLID
  5
FF
100
AcDbEntity
  8
Langen
  6
ByBlock
 62
    0
370
   -2
100
AcDbTrace
 10
-20
 20
-60
 30
0
 11
-19.58371534222716
 21
-62.5
 31
0
 12
-20.41628465777284
 22
-62.5
 32
0
 13
-20.41628465777284
 23
-62.5
 33
0
  0
MTEXT
  5
100
100
AcDbEntity
  8
Langen
  6
CONTINUOUS
 62
    0
370
   -2
100
AcDbMText
 10
-21.875
 20
-57.5
 30
0
 40
2.5
 41
1.111111111111266
 71
    5
 72
    1
  1
5
  7
standard
210
0
220
0
230
1
 50
90
 73
    2
 44
1
  0
LINE
  5
101
100
AcDbEntity
  8
Langen
  6
ByBlock
 62
    0
370
   -2
100
AcDbLine
 10
-10.625
 20
-55
 11
-21.25
 21
-55
  0
LINE
  5
102
100
AcDbEntity
  8
Langen
  6
ByBlock
 62
    0
370
   -2
100
AcDbLine
 10
-10.625
 20
-60
 11
-21.25
 21
-60
  0
ENDBLK
  5
7E
330
7C
100
AcDbEntity
  8
0
100
AcDbBlockEnd
  0
BLOCK
  5
80
330
7F
100
AcDbEntity
  8
0
100
AcDbBlockBegin
  2
*D29
 70
    1
 10
0
 20
0
  3
*D29
  1

  0
LINE
  5
103
100
AcDbEntity
  8
Langen
  6
ByBlock
 62
    0
370
   -2
100
AcDbLine
 10
215
 20
-24.7
 11
215
 21
-14.7
  0
SOLID
  5
104
100
AcDbEntity
  8
Langen
  6
ByBlock
 62
    0
370
   -2
100
AcDbTrace
 10
215
 20
-24.7
 30
0
 11
214.5837153422272
 21
-22.2
 31
0
 12
215.4162846577728
 22
-22.2
 32
0
 13
215.4162846577728
 23
-22.2
 33
0
  0
SOLID
  5
105
100
AcDbEntity
  8
Langen
  6
ByBlock
 62
    0
370
   -2
100
AcDbTrace
 10
215
 20
-14.7
 30
0
 11
215.4162846577728
 21
-17.2
 31
0
 12
214.5837153422272
 22
-17.2
 32
0
 13
214.5837153422272
 23
-17.2
 33
0
  0
MTEXT
  5
106
100
AcDbEntity
  8
Langen
  6
CONTINUOUS
 62
    0
370
   -2
100
AcDbMText
 10
213.125
 20
-19.7
 30
0
 40
2.5
 41
2.5
 71
    5
 72
    1
  1
10
  7
standard
210
0
220
0
230
1
 50
90
 73
    2
 44
1
  0
LINE
  5
107
100
AcDbEntity
  8
Langen
  6
ByBlock
 62
    0
370
   -2
100
AcDbLine
 10
219.375
 20
-24.7
 11
213.75
 21
-24.7
  0
LINE
  5
108
100
AcDbEntity
  8
Langen
  6
ByBlock
 62
    0
370
   -2
100
AcDbLine
 10
219.375
 20
-14.7
 11
213.75
 21
-14.7
  0
ENDBLK
  5
81
330
7F
100
AcDbEntity
  8
0
100
AcDbBlockEnd
  0
BLOCK
  5
83
330
82
100
AcDbEntity
  8
0
100
AcDbBlockBegin
  2
*D18
 70
    1
 10
0
 20
0
  3
*D18
  1

  0
LINE
  5
109
100
AcDbEntity
  8
Langen
  6
ByBlock
 62
    0
370
   -2
100
AcDbLine
 10
30
 20
-0.1750000000000007
 11
30
 21
-24.7
  0
SOLID
  5
10A
100
AcDbEntity
  8
Langen
  6
ByBlock
 62
    0
370
   -2
100
AcDbTrace
 10
30
 20
-0.1750000000000007
 30
0
 11
30.41628465777284
 21
-2.675000000000001
 31
0
 12
29.58371534222716
 22
-2.675000000000001
 32
0
 13
29.58371534222716
 23
-2.675000000000001
 33
0
  0
SOLID
  5
10B
100
AcDbEntity
  8
Langen
  6
ByBlock
 62
    0
370
   -2
100
AcDbTrace
 10
30
 20
-24.7
 30
0
 11
29.58371534222716
 21
-22.2
 31
0
 12
30.41628465777284
 22
-22.2
 32
0
 13
30.41628465777284
 23
-22.2
 33
0
  0
MTEXT
  5
10C
100
AcDbEntity
  8
Langen
  6
CONTINUOUS
 62
    0
370
   -2
100
AcDbMText
 10
28.125
 20
-12.4375
 30
0
 40
2.5
 41
8.194444444444599
 71
    5
 72
    1
  1
24,52
  7
standard
210
0
220
0
230
1
 50
90
 73
    2
 44
1
  0
LINE
  5
10D
100
AcDbEntity
  8
Langen
  6
ByBlock
 62
    0
370
   -2
100
AcDbLine
 10
31.71487900320528
 20
-0.1749999999999999
 11
28.75
 21
-0.1750000000000005
  0
LINE
  5
10E
100
AcDbEntity
  8
Langen
  6
ByBlock
 62
    0
370
   -2
100
AcDbLine
 10
34.54069367338825
 20
-24.7
 11
28.75
 21
-24.7
  0
ENDBLK
  5
84
330
82
100
AcDbEntity
  8
0
100
AcDbBlockEnd
  0
BLOCK
  5
86
330
85
100
AcDbEntity
  8
0
100
AcDbBlockBegin
  2
*D3
 70
    1
 10
0
 20
0
  3
*D3
  1

  0
LINE
  5
10F
100
AcDbEntity
  8
Langen
  6
ByBlock
 62
    0
370
   -2
100
AcDbLine
 10
-10.625
 20
-24.7
 11
-21.25
 21
-24.69999999999998
  0
LINE
  5
110
100
AcDbEntity
  8
Langen
  6
ByBlock
 62
    0
370
   -2
100
AcDbLine
 10
-10.625
 20
122.9
 11
-21.25
 21
122.9
  0
LINE
  5
111
100
AcDbEntity
  8
Langen
  6
ByBlock
 62
    0
370
   -2
100
AcDbLine
 10
-20
 20
-24.69999999999999
 11
-20
 21
122.9
  0
SOLID
  5
112
100
AcDbEntity
  8
Langen
  6
ByBlock
 62
    0
370
   -2
100
AcDbTrace
 10
-20
 20
-24.69999999999999
 30
0
 11
-20.41628465777284
 21
-22.19999999999999
 31
0
 12
-19.58371534222716
 22
-22.19999999999999
 32
0
 13
-19.58371534222716
 23
-22.19999999999999
 33
0
  0
SOLID
  5
113
100
AcDbEntity
  8
Langen
  6
ByBlock
 62
    0
370
   -2
100
AcDbTrace
 10
-20
 20
122.9
 30
0
 11
-19.58371534222716
 21
120.4
 31
0
 12
-20.41628465777284
 22
120.4
 32
0
 13
-20.41628465777284
 23
120.4
 33
0
  0
MTEXT
  5
114
100
AcDbEntity
  8
Langen
  6
CONTINUOUS
 62
    0
370
   -2
100
AcDbMText
 10
-21.875
 20
49.1
 30
0
 40
2.5
 41
7.638888888889044
 71
    5
 72
    1
  1
147,6
  7
standard
210
0
220
0
230
1
 50
90
 73
    2
 44
1
  0
ENDBLK
  5
87
330
85
100
AcDbEntity
  8
0
100
AcDbBlockEnd
  0
BLOCK
  5
89
330
88
100
AcDbEntity
  8
0
100
AcDbBlockBegin
  2
*D12
 70
    1
 10
0
 20
0
  3
*D12
  1

  0
LINE
  5
115
100
AcDbEntity
  8
Langen
  6
ByBlock
 62
    0
370
   -2
100
AcDbLine
 10
-10
 20
50
 11
-0.3
 21
50
  0
SOLID
  5
116
100
AcDbEntity
  8
Langen
  6
ByBlock
 62
    0
370
   -2
100
AcDbTrace
 10
-10
 20
50
 30
0
 11
-7.5
 21
50.41628465777284
 31
0
 12
-7.5
 22
49.58371534222716
 32
0
 13
-7.5
 23
49.58371534222716
 33
0
  0
SOLID
  5
117
100
AcDbEntity
  8
Langen
  6
ByBlock
 62
    0
370
   -2
100
AcDbTrace
 10
-0.3
 20
50
 30
0
 11
-2.8
 21
49.58371534222716
 31
0
 12
-2.8
 22
50.41628465777284
 32
0
 13
-2.8
 23
50.41628465777284
 33
0
  0
MTEXT
  5
118
100
AcDbEntity
  8
Langen
  6
CONTINUOUS
 62
    0
370
   -2
100
AcDbMText
 10
-5.15
 20
51.875
 30
0
 40
2.5
 41
4.027777777777933
 71
    5
 72
    1
  1
9,7
  7
standard
210
0
220
0
230
1
 50
0
 73
    2
 44
1
  0
LINE
  5
119
100
AcDbEntity
  8
Langen
  6
ByBlock
 62
    0
370
   -2
100
AcDbLine
 10
-10
 20
46.77997294632208
 11
-10
 21
51.25
  0
LINE
  5
11A
100
AcDbEntity
  8
Langen
  6
ByBlock
 62
    0
370
   -2
100
AcDbLine
 10
-0.2999999999999999
 20
43.64017886834098
 11
-0.2999999999999999
 21
51.25
  0
ENDBLK
  5
8A
330
88
100
AcDbEntity
  8
0
100
AcDbBlockEnd
  0
BLOCK
  5
8C
330
8B
100
AcDbEntity
  8
0
100
AcDbBlockBegin
  2
*D26
 70
    1
 10
0
 20
0
  3
*D26
  1

  0
LINE
  5
11B
100
AcDbEntity
  8
Langen
  6
ByBlock
 62
    0
370
   -2
100
AcDbLine
 10
92.45
 20
43
 11
6.7
 21
43
  0
SOLID
  5
11C
100
AcDbEntity
  8
Langen
  6
ByBlock
 62
    0
370
   -2
100
AcDbTrace
 10
92.45
 20
43
 30
0
 11
89.95
 21
42.58371534222716
 31
0
 12
89.95
 22
43.41628465777284
 32
0
 13
89.95
 23
43.41628465777284
 33
0
  0
SOLID
  5
11D
100
AcDbEntity
  8
Langen
  6
ByBlock
 62
    0
370
   -2
100
AcDbTrace
 10
6.7
 20
43
 30
0
 11
9.199999999999999
 21
43.41628465777284
 31
0
 12
9.199999999999999
 22
42.58371534222716
 32
0
 13
9.199999999999999
 23
42.58371534222716
 33
0
  0
MTEXT
  5
11E
100
AcDbEntity
  8
Langen
  6
CONTINUOUS
 62
    0
370
   -2
100
AcDbMText
 10
69
 20
46
 30
0
 40
2.5
 41
7.916666666666977
 71
    5
 72
    1
  1
85,75
  7
standard
210
0
220
0
230
1
 50
360
 73
    2
 44
1
  0
LINE
  5
11F
100
AcDbEntity
  8
Langen
  6
ByBlock
 62
    0
370
   -2
100
AcDbLine
 10
92.45
 20
41.54433816846836
 11
92.45
 21
44.25
  0
LINE
  5
120
100
AcDbEntity
  8
Langen
  6
ByBlock
 62
    0
370
   -2
100
AcDbLine
 10
6.7
 20
43.36297542040028
 11
6.7
 21
44.25
  0
ENDBLK
  5
8D
330
8B
100
AcDbEntity
  8
0
100
AcDbBlockEnd
  0
BLOCK
  5
8F
330
8E
100
AcDbEntity
  8
0
100
AcDbBlockBegin
  2
*D5
 70
    1
 10
0
 20
0
  3
*D5
  1

  0
LINE
  5
121
100
AcDbEntity
  8
Langen
  6
ByBlock
 62
    0
370
   -2
100
AcDbLine
 10
-20
 20
-45
 11
-20
 21
-60
  0
SOLID
  5
122
100
AcDbEntity
  8
Langen
  6
ByBlock
 62
    0
370
   -2
100
AcDbTrace
 10
-20
 20
-50
 30
0
 11
-20.41628465777284
 21
-47.5
 31
0
 12
-19.58371534222716
 22
-47.5
 32
0
 13
-19.58371534222716
 23
-47.5
 33
0
  0
SOLID
  5
123
100
AcDbEntity
  8
Langen
  6
ByBlock
 62
    0
370
   -2
100
AcDbTrace
 10
-20
 20
-55
 30
0
 11
-19.58371534222716
 21
-57.5
 31
0
 12
-20.41628465777284
 22
-57.5
 32
0
 13
-20.41628465777284
 23
-57.5
 33
0
  0
MTEXT
  5
124
100
AcDbEntity
  8
Langen
  6
CONTINUOUS
 62
    0
370
   -2
100
AcDbMText
 10
-21.875
 20
-52.5
 30
0
 40
2.5
 41
1.111111111111266
 71
    5
 72
    1
  1
5
  7
standard
210
0
220
0
230
1
 50
90
 73
    2
 44
1
  0
LINE
  5
125
100
AcDbEntity
  8
Langen
  6
ByBlock
 62
    0
370
   -2
100
AcDbLine
 10
-10.625
 20
-50
 11
-21.25
 21
-50
  0
LINE
  5
126
100
AcDbEntity
  8
Langen
  6
ByBlock
 62
    0
370
   -2
100
AcDbLine
 10
-10.625
 20
-55
 11
-21.25
 21
-55
  0
ENDBLK
  5
90
330
8E
100
AcDbEntity
  8
0
100
AcDbBlockEnd
  0
BLOCK
  5
92
330
91
100
AcDbEntity
  8
0
100
AcDbBlockBegin
  2
*D21
 70
    1
 10
0
 20
0
  3
*D21
  1

  0
LINE
  5
127
100
AcDbEntity
  8
Langen
  6
ByBlock
 62
    0
370
   -2
100
AcDbLine
 10
191.8
 20
-65
 11
201.5
 21
-65
  0
SOLID
  5
128
100
AcDbEntity
  8
Langen
  6
ByBlock
 62
    0
370
   -2
100
AcDbTrace
 10
191.8
 20
-65
 30
0
 11
194.3
 21
-64.58371534222717
 31
0
 12
194.3
 22
-65.41628465777283
 32
0
 13
194.3
 23
-65.41628465777283
 33
0
  0
SOLID
  5
129
100
AcDbEntity
  8
Langen
  6
ByBlock
 62
    0
370
   -2
100
AcDbTrace
 10
201.5
 20
-65
 30
0
 11
199
 21
-65.41628465777283
 31
0
 12
199
 22
-64.58371534222717
 32
0
 13
199
 23
-64.58371534222717
 33
0
  0
MTEXT
  5
12A
100
AcDbEntity
  8
Langen
  6
CONTINUOUS
 62
    0
370
   -2
100
AcDbMText
 10
196.65
 20
-63.125
 30
0
 40
2.5
 41
4.027777777777933
 71
    5
 72
    1
  1
9,7
  7
standard
210
0
220
0
230
1
 50
0
 73
    2
 44
1
  0
LINE
  5
12B
100
AcDbEntity
  8
Langen
  6
ByBlock
 62
    0
370
   -2
100
AcDbLine
 10
191.8
 20
-60.625
 11
191.8
 21
-66.25
  0
LINE
  5
12C
100
AcDbEntity
  8
Langen
  6
ByBlock
 62
    0
370
   -2
100
AcDbLine
 10
201.5
 20
-60.625
 11
201.5
 21
-66.25
  0
ENDBLK
  5
93
330
91
100
AcDbEntity
  8
0
100
AcDbBlockEnd
  0
BLOCK
  5
95
330
94
100
AcDbEntity
  8
0
100
AcDbBlockBegin
  2
*D24
 70
    1
 10
0
 20
0
  3
*D24
  1

  0
LINE
  5
12D
100
AcDbEntity
  8
Langen
  6
ByBlock
 62
    0
370
   -2
100
AcDbLine
 10
235.0560757275853
 20
122.9
 11
235.0560757275853
 21
95.925
  0
SOLID
  5
12E
100
AcDbEntity
  8
Langen
  6
ByBlock
 62
    0
370
   -2
100
AcDbTrace
 10
235.0560757275853
 20
122.9
 30
0
 11
235.4723603853581
 21
120.4
 31
0
 12
234.6397910698124
 22
120.4
 32
0
 13
234.6397910698124
 23
120.4
 33
0
  0
SOLID
  5
12F
100
AcDbEntity
  8
Langen
  6
ByBlock
 62
    0
370
   -2
100
AcDbTrace
 10
235.0560757275853
 20
95.925
 30
0
 11
234.6397910698124
 21
98.425
 31
0
 12
235.4723603853581
 22
98.425
 32
0
 13
235.4723603853581
 23
98.425
 33
0
  0
MTEXT
  5
130
100
AcDbEntity
  8
Langen
  6
CONTINUOUS
 62
    0
370
   -2
100
AcDbMText
 10
233.1810757275853
 20
109.4125
 30
0
 40
2.5
 41
7.916666666666823
 71
    5
 72
    1
  1
26,98
  7
standard
210
0
220
0
230
1
 50
90
 73
    2
 44
1
  0
LINE
  5
131
100
AcDbEntity
  8
Langen
  6
ByBlock
 62
    0
370
   -2
100
AcDbLine
 10
230.625
 20
122.9
 11
236.3060757275853
 21
122.9
  0
LINE
  5
132
100
AcDbEntity
  8
Langen
  6
ByBlock
 62
    0
370
   -2
100
AcDbLine
 10
230.625
 20
95.925
 11
236.3060757275853
 21
95.925
  0
ENDBLK
  5
96
330
94
100
AcDbEntity
  8
0
100
AcDbBlockEnd
  0
BLOCK
  5
98
330
97
100
AcDbEntity
  8
0
100
AcDbBlockBegin
  2
*D25
 70
    1
 10
0
 20
0
  3
*D25
  1

  0
LINE
  5
133
100
AcDbEntity
  8
Langen
  6
ByBlock
 62
    0
370
   -2
100
AcDbLine
 10
191.8
 20
10
 11
-0.3
 21
10
  0
SOLID
  5
134
100
AcDbEntity
  8
Langen
  6
ByBlock
 62
    0
370
   -2
100
AcDbTrace
 10
191.8
 20
10
 30
0
 11
189.3
 21
9.58371534222716
 31
0
 12
189.3
 22
10.41628465777284
 32
0
 13
189.3
 23
10.41628465777284
 33
0
  0
SOLID
  5
135
100
AcDbEntity
  8
Langen
  6
ByBlock
 62
    0
370
   -2
100
AcDbTrace
 10
-0.3
 20
10
 30
0
 11
2.2
 21
10.41628465777284
 31
0
 12
2.2
 22
9.583715342227158
 32
0
 13
2.2
 23
9.583715342227158
 33
0
  0
MTEXT
  5
136
100
AcDbEntity
  8
Langen
  6
CONTINUOUS
 62
    0
370
   -2
100
AcDbMText
 10
28
 20
15
 30
0
 40
2.5
 41
6.805555555555555
 71
    5
 72
    1
  1
192,1
  7
standard
210
0
220
0
230
1
 50
360
 73
    2
 44
1
  0
LINE
  5
137
100
AcDbEntity
  8
Langen
  6
ByBlock
 62
    0
370
   -2
100
AcDbLine
 10
191.8
 20
7.023020235468508
 11
191.8
 21
11.25
  0
LINE
  5
138
100
AcDbEntity
  8
Langen
  6
ByBlock
 62
    0
370
   -2
100
AcDbLine
 10
-0.2999999999999999
 20
6.75643605899065
 11
-0.2999999999999999
 21
11.25
  0
ENDBLK
  5
99
330
97
100
AcDbEntity
  8
0
100
AcDbBlockEnd
  0
BLOCK
  5
9B
330
9A
100
AcDbEntity
  8
0
100
AcDbBlockBegin
  2
*D10
 70
    1
 10
0
 20
0
  3
*D10
  1

  0
LINE
  5
139
100
AcDbEntity
  8
Langen
  6
ByBlock
 62
    0
370
   -2
100
AcDbLine
 10
184.8
 20
-45
 11
201.5
 21
-45
  0
SOLID
  5
13A
100
AcDbEntity
  8
Langen
  6
ByBlock
 62
    0
370
   -2
100
AcDbTrace
 10
184.8
 20
-45
 30
0
 11
187.3
 21
-44.58371534222716
 31
0
 12
187.3
 22
-45.41628465777284
 32
0
 13
187.3
 23
-45.41628465777284
 33
0
  0
SOLID
  5
13B
100
AcDbEntity
  8
Langen
  6
ByBlock
 62
    0
370
   -2
100
AcDbTrace
 10
201.5
 20
-45
 30
0
 11
199
 21
-45.41628465777284
 31
0
 12
199
 22
-44.58371534222716
 32
0
 13
199
 23
-44.58371534222716
 33
0
  0
MTEXT
  5
13C
100
AcDbEntity
  8
Langen
  6
CONTINUOUS
 62
    0
370
   -2
100
AcDbMText
 10
193.15
 20
-43.125
 30
0
 40
2.5
 41
5.416666666666822
 71
    5
 72
    1
  1
16,7
  7
standard
210
0
220
0
230
1
 50
0
 73
    2
 44
1
  0
LINE
  5
13D
100
AcDbEntity
  8
Langen
  6
ByBlock
 62
    0
370
   -2
100
AcDbLine
 10
184.8
 20
-49.375
 11
184.8
 21
-43.75
  0
LINE
  5
13E
100
AcDbEntity
  8
Langen
  6
ByBlock
 62
    0
370
   -2
100
AcDbLine
 10
201.5
 20
-49.375
 11
201.5
 21
-43.75
  0
ENDBLK
  5
9C
330
9A
100
AcDbEntity
  8
0
100
AcDbBlockEnd
  0
BLOCK
  5
9E
330
9D
100
AcDbEntity
  8
0
100
AcDbBlockBegin
  2
*D6
 70
    1
 10
0
 20
0
  3
*D6
  1

  0
LINE
  5
13F
100
AcDbEntity
  8
Langen
  6
ByBlock
 62
    0
370
   -2
100
AcDbLine
 10
210
 20
-50
 11
210
 21
-60
  0
SOLID
  5
140
100
AcDbEntity
  8
Langen
  6
ByBlock
 62
    0
370
   -2
100
AcDbTrace
 10
210
 20
-50
 30
0
 11
210.4162846577728
 21
-52.5
 31
0
 12
209.5837153422272
 22
-52.5
 32
0
 13
209.5837153422272
 23
-52.5
 33
0
  0
SOLID
  5
141
100
AcDbEntity
  8
Langen
  6
ByBlock
 62
    0
370
   -2
100
AcDbTrace
 10
210
 20
-60
 30
0
 11
209.5837153422272
 21
-57.5
 31
0
 12
210.4162846577728
 22
-57.5
 32
0
 13
210.4162846577728
 23
-57.5
 33
0
  0
MTEXT
  5
142
100
AcDbEntity
  8
Langen
  6
CONTINUOUS
 62
    0
370
   -2
100
AcDbMText
 10
208.125
 20
-55
 30
0
 40
2.5
 41
2.5
 71
    5
 72
    1
  1
10
  7
standard
210
0
220
0
230
1
 50
90
 73
    2
 44
1
  0
LINE
  5
143
100
AcDbEntity
  8
Langen
  6
ByBlock
 62
    0
370
   -2
100
AcDbLine
 10
202.125
 20
-50
 11
211.25
 21
-50
  0
LINE
  5
144
100
AcDbEntity
  8
Langen
  6
ByBlock
 62
    0
370
   -2
100
AcDbLine
 10
202.125
 20
-60
 11
211.25
 21
-60
  0
ENDBLK
  5
9F
330
9D
100
AcDbEntity
  8
0
100
AcDbBlockEnd
  0
BLOCK
  5
A1
330
A0
100
AcDbEntity
  8
0
100
AcDbBlockBegin
  2
*D14
 70
    1
 10
0
 20
0
  3
*D14
  1

  0
LINE
  5
145
100
AcDbEntity
  8
Langen
  6
ByBlock
 62
    0
370
   -2
100
AcDbLine
 10
-10
 20
40
 11
6.7
 21
40
  0
SOLID
  5
146
100
AcDbEntity
  8
Langen
  6
ByBlock
 62
    0
370
   -2
100
AcDbTrace
 10
-10
 20
40
 30
0
 11
-7.5
 21
40.41628465777284
 31
0
 12
-7.5
 22
39.58371534222716
 32
0
 13
-7.5
 23
39.58371534222716
 33
0
  0
SOLID
  5
147
100
AcDbEntity
  8
Langen
  6
ByBlock
 62
    0
370
   -2
100
AcDbTrace
 10
6.7
 20
40
 30
0
 11
4.2
 21
39.58371534222716
 31
0
 12
4.2
 22
40.41628465777284
 32
0
 13
4.2
 23
40.41628465777284
 33
0
  0
MTEXT
  5
148
100
AcDbEntity
  8
Langen
  6
CONTINUOUS
 62
    0
370
   -2
100
AcDbMText
 10
-1.65
 20
41.875
 30
0
 40
2.5
 41
5.416666666666822
 71
    5
 72
    1
  1
16,7
  7
standard
210
0
220
0
230
1
 50
0
 73
    2
 44
1
  0
LINE
  5
149
100
AcDbEntity
  8
Langen
  6
ByBlock
 62
    0
370
   -2
100
AcDbLine
 10
-10
 20
39.87834360595612
 11
-10
 21
38.75
  0
LINE
  5
14A
100
AcDbEntity
  8
Langen
  6
ByBlock
 62
    0
370
   -2
100
AcDbLine
 10
6.7
 20
39.87834360595612
 11
6.7
 21
38.75
  0
ENDBLK
  5
A2
330
A0
100
AcDbEntity
  8
0
100
AcDbBlockEnd
  0
BLOCK
  5
A4
330
A3
100
AcDbEntity
  8
0
100
AcDbBlockBegin
  2
*D11
 70
    1
 10
0
 20
0
  3
*D11
  1

  0
LINE
  5
14B
100
AcDbEntity
  8
Langen
  6
ByBlock
 62
    0
370
   -2
100
AcDbLine
 10
7.325
 20
-14.7
 11
7.95
 21
-14.7
  0
LINE
  5
14C
100
AcDbEntity
  8
Langen
  6
ByBlock
 62
    0
370
   -2
100
AcDbLine
 10
93.075
 20
-14.7
 11
93.7
 21
-14.7
  0
LINE
  5
14D
100
AcDbEntity
  8
Langen
  6
ByBlock
 62
    0
370
   -2
100
AcDbLine
 10
6.7
 20
-14.7
 11
92.45
 21
-14.7
  0
SOLID
  5
14E
100
AcDbEntity
  8
Langen
  6
ByBlock
 62
    0
370
   -2
100
AcDbTrace
 10
6.7
 20
-14.7
 30
0
 11
9.199999999999999
 21
-14.28371534222716
 31
0
 12
9.199999999999999
 22
-15.11628465777284
 32
0
 13
9.199999999999999
 23
-15.11628465777284
 33
0
  0
SOLID
  5
14F
100
AcDbEntity
  8
Langen
  6
ByBlock
 62
    0
370
   -2
100
AcDbTrace
 10
92.45
 20
-14.7
 30
0
 11
89.95
 21
-15.11628465777284
 31
0
 12
89.95
 22
-14.28371534222716
 32
0
 13
89.95
 23
-14.28371534222716
 33
0
  0
MTEXT
  5
150
100
AcDbEntity
  8
Langen
  6
CONTINUOUS
 62
    0
370
   -2
100
AcDbMText
 10
71
 20
-12
 30
0
 40
2.5
 41
7.916666666666977
 71
    5
 72
    1
  1
85,75
  7
standard
210
0
220
0
230
1
 50
0
 73
    2
 44
1
  0
ENDBLK
  5
A5
330
A3
100
AcDbEntity
  8
0
100
AcDbBlockEnd
  0
BLOCK
  5
A7
330
A6
100
AcDbEntity
  8
0
100
AcDbBlockBegin
  2
*D8
 70
    1
 10
0
 20
0
  3
*D8
  1

  0
LINE
  5
151
100
AcDbEntity
  8
Langen
  6
ByBlock
 62
    0
370
   -2
100
AcDbLine
 10
6.699999999999999
 20
-45
 11
-10
 21
-45
  0
SOLID
  5
152
100
AcDbEntity
  8
Langen
  6
ByBlock
 62
    0
370
   -2
100
AcDbTrace
 10
6.699999999999999
 20
-45
 30
0
 11
4.199999999999999
 21
-45.41628465777284
 31
0
 12
4.199999999999999
 22
-44.58371534222716
 32
0
 13
4.199999999999999
 23
-44.58371534222716
 33
0
  0
SOLID
  5
153
100
AcDbEntity
  8
Langen
  6
ByBlock
 62
    0
370
   -2
100
AcDbTrace
 10
-10
 20
-45
 30
0
 11
-7.5
 21
-44.58371534222716
 31
0
 12
-7.5
 22
-45.41628465777284
 32
0
 13
-7.5
 23
-45.41628465777284
 33
0
  0
MTEXT
  5
154
100
AcDbEntity
  8
Langen
  6
CONTINUOUS
 62
    0
370
   -2
100
AcDbMText
 10
-1.65
 20
-43.125
 30
0
 40
2.5
 41
5.416666666666822
 71
    5
 72
    1
  1
16,7
  7
standard
210
0
220
0
230
1
 50
360
 73
    2
 44
1
  0
LINE
  5
155
100
AcDbEntity
  8
Langen
  6
ByBlock
 62
    0
370
   -2
100
AcDbLine
 10
6.7
 20
-49.375
 11
6.699999999999999
 21
-43.75
  0
LINE
  5
156
100
AcDbEntity
  8
Langen
  6
ByBlock
 62
    0
370
   -2
100
AcDbLine
 10
-10
 20
-49.375
 11
-10
 21
-43.75
  0
ENDBLK
  5
A8
330
A6
100
AcDbEntity
  8
0
100
AcDbBlockEnd
  0
BLOCK
  5
AA
330
A9
100
AcDbEntity
  8
0
100
AcDbBlockBegin
  2
*D1
 70
    1
 10
0
 20
0
  3
*D1
  1

  0
LINE
  5
157
100
AcDbEntity
  8
Langen
  6
ByBlock
 62
    0
370
   -2
100
AcDbLine
 10
92.45
 20
50
 11
99.05000000000001
 21
50
  0
SOLID
  5
158
100
AcDbEntity
  8
Langen
  6
ByBlock
 62
    0
370
   -2
100
AcDbTrace
 10
92.45
 20
50
 30
0
 11
94.95
 21
50.41628465777284
 31
0
 12
94.95
 22
49.58371534222716
 32
0
 13
94.95
 23
49.58371534222716
 33
0
  0
SOLID
  5
159
100
AcDbEntity
  8
Langen
  6
ByBlock
 62
    0
370
   -2
100
AcDbTrace
 10
99.05000000000001
 20
50
 30
0
 11
96.55000000000001
 21
49.58371534222716
 31
0
 12
96.55000000000001
 22
50.41628465777284
 32
0
 13
96.55000000000001
 23
50.41628465777284
 33
0
  0
MTEXT
  5
15A
100
AcDbEntity
  8
Langen
  6
CONTINUOUS
 62
    0
370
   -2
100
AcDbMText
 10
95.75
 20
51.875
 30
0
 40
2.5
 41
4.027777777778088
 71
    5
 72
    1
  1
6,6
  7
standard
210
0
220
0
230
1
 50
0
 73
    2
 44
1
  0
LINE
  5
15B
100
AcDbEntity
  8
Langen
  6
ByBlock
 62
    0
370
   -2
100
AcDbLine
 10
92.45
 20
50.625
 11
92.45
 21
51.25
  0
LINE
  5
15C
100
AcDbEntity
  8
Langen
  6
ByBlock
 62
    0
370
   -2
100
AcDbLine
 10
99.05000000000001
 20
50.625
 11
99.05000000000001
 21
51.25
  0
ENDBLK
  5
AB
330
A9
100
AcDbEntity
  8
0
100
AcDbBlockEnd
  0
BLOCK
  5
AD
330
AC
100
AcDbEntity
  8
0
100
AcDbBlockBegin
  2
*D16
 70
    1
 10
0
 20
0
  3
*D16
  1

  0
LINE
  5
15D
100
AcDbEntity
  8
Langen
  6
ByBlock
 62
    0
370
   -2
100
AcDbLine
 10
30
 20
122.9
 11
30
 21
95.925
  0
SOLID
  5
15E
100
AcDbEntity
  8
Langen
  6
ByBlock
 62
    0
370
   -2
100
AcDbTrace
 10
30
 20
122.9
 30
0
 11
30.41628465777285
 21
120.4
 31
0
 12
29.58371534222716
 22
120.4
 32
0
 13
29.58371534222716
 23
120.4
 33
0
  0
SOLID
  5
15F
100
AcDbEntity
  8
Langen
  6
ByBlock
 62
    0
370
   -2
100
AcDbTrace
 10
30
 20
95.925
 30
0
 11
29.58371534222716
 21
98.425
 31
0
 12
30.41628465777284
 22
98.425
 32
0
 13
30.41628465777284
 23
98.425
 33
0
  0
MTEXT
  5
160
100
AcDbEntity
  8
Langen
  6
CONTINUOUS
 62
    0
370
   -2
100
AcDbMText
 10
28.125
 20
109.4125
 30
0
 40
2.5
 41
7.916666666666823
 71
    5
 72
    1
  1
26,98
  7
standard
210
0
220
0
230
1
 50
90
 73
    2
 44
1
  0
LINE
  5
161
100
AcDbEntity
  8
Langen
  6
ByBlock
 62
    0
370
   -2
100
AcDbLine
 10
15.69601157430924
 20
122.9
 11
31.25
 21
122.9
  0
LINE
  5
162
100
AcDbEntity
  8
Langen
  6
ByBlock
 62
    0
370
   -2
100
AcDbLine
 10
14.44009394311681
 20
95.925
 11
31.25
 21
95.925
  0
ENDBLK
  5
AE
330
AC
100
AcDbEntity
  8
0
100
AcDbBlockEnd
  0
ENDSEC
  0
SECTION
  2
ENTITIES
  0
HATCH
  5
163
100
AcDbEntity
  8
Kontur
  6
ByLayer
 62
  256
370
   -1
100
AcDbHatch
 10
0
 20
0
 30
0
210
0
220
0
230
1
  2
ansi31
 70
    0
 71
    0
 91
    1
 92
    0
 93
    4
 72
    1
 10
220
 20
113.1
 11
225
 21
113.1
 72
    1
 10
225
 20
113.1
 11
225
 21
-14.7
 72
    1
 10
225
 20
-14.7
 11
220
 21
-14.7
 72
    1
 10
220
 20
-14.7
 11
220
 21
113.1
 97
    0
 75
    0
 76
    1
 52
0
 41
1
 77
    0
 78
    0
 98
    0
  0
HATCH
  5
164
100
AcDbEntity
  8
Kontur
  6
ByLayer
 62
  256
370
   -1
100
AcDbHatch
 10
0
 20
0
 30
0
210
0
220
0
230
1
  2
ansi31
 70
    0
 71
    0
 91
    1
 92
    0
 93
    4
 72
    1
 10
225
 20
95.925
 11
230
 21
95.925
 72
    1
 10
230
 20
95.925
 11
230
 21
-0.175
 72
    1
 10
230
 20
-0.175
 11
225
 21
-0.175
 72
    1
 10
225
 20
-0.175
 11
225
 21
95.925
 97
    0
 75
    0
 76
    1
 52
0
 41
1
 77
    0
 78
    0
 98
    0
  0
HATCH
  5
165
100
AcDbEntity
  8
Kontur
  6
ByLayer
 62
  256
370
   -1
100
AcDbHatch
 10
0
 20
0
 30
0
210
0
220
0
230
1
  2
ansi31
 70
    0
 71
    0
 91
    1
 92
    0
 93
    4
 72
    1
 10
191.8
 20
-55
 11
-0.3000000000000095
 21
-55
 72
    1
 10
-0.3000000000000095
 20
-55
 11
-0.3000000000000095
 21
-60
 72
    1
 10
-0.3000000000000095
 20
-60
 11
191.8
 21
-60
 72
    1
 10
191.8
 20
-60
 11
191.8
 21
-55
 97
    0
 75
    0
 76
    1
 52
0
 41
1
 77
    0
 78
    0
 98
    0
  0
HATCH
  5
166
100
AcDbEntity
  8
Kontur
  6
ByLayer
 62
  256
370
   -1
100
AcDbHatch
 10
0
 20
0
 30
0
210
0
220
0
230
1
  2
ansi31
 70
    0
 71
    0
 91
    1
 92
    0
 93
    4
 72
    1
 10
99.05000000000001
 20
-50
 11
184.8
 21
-50
 72
    1
 10
184.8
 20
-50
 11
184.8
 21
-55
 72
    1
 10
184.8
 20
-55
 11
99.05000000000001
 21
-55
 72
    1
 10
99.05000000000001
 20
-55
 11
99.05000000000001
 21
-50
 97
    0
 75
    0
 76
    1
 52
0
 41
1
 77
    0
 78
    0
 98
    0
  0
HATCH
  5
167
100
AcDbEntity
  8
Kontur
  6
ByLayer
 62
  256
370
   -1
100
AcDbHatch
 10
0
 20
0
 30
0
210
0
220
0
230
1
  2
ansi31
 70
    0
 71
    0
 91
    1
 92
    0
 93
    4
 72
    1
 10
6.7
 20
-50
 11
92.45
 21
-50
 72
    1
 10
92.45
 20
-50
 11
92.45
 21
-55
 72
    1
 10
92.45
 20
-55
 11
6.7
 21
-55
 72
    1
 10
6.7
 20
-55
 11
6.7
 21
-50
 97
    0
 75
    0
 76
    1
 52
0
 41
1
 77
    0
 78
    0
 98
    0
  0
MTEXT
  5
168
100
AcDbEntity
  8
Beschriftung
  6
ByLayer
 62
  256
370
   -1
100
AcDbMText
 10
50
 20
110
 30
0
 40
5
 41
36.52777777777801
 71
    2
 72
    1
  1
Wellplate 1
  7
standard
210
0
220
0
230
1
 50
0
 73
    2
 44
1
  0
MTEXT
  5
169
100
AcDbEntity
  8
Beschriftung
  6
ByLayer
 62
  256
370
   -1
100
AcDbMText
 10
140
 20
110
 30
0
 40
5
 41
37.63888888888912
 71
    2
 72
    1
  1
Wellplate 2
  7
standard
210
0
220
0
230
1
 50
0
 73
    2
 44
1
  0
DIMENSION
  5
16A
100
AcDbEntity
  8
Langen
  6
ByLayer
 62
  256
370
   -1
100
AcDbDimension
  2
*D1
 10
99.05000000000001
 20
50
 30
0
 11
95.75
 21
51.875
 31
0
 70
   32
 71
    5
 72
    0
  3
Standard
 53
0
210
0
220
0
230
1
100
AcDbAlignedDimension
 13
92.45
 23
50
 33
0
 14
99.05000000000001
 24
50
 34
0
100
AcDbRotatedDimension
  0
MTEXT
  5
16B
100
AcDbEntity
  8
Beschriftung
  6
ByLayer
 62
  256
370
   -1
100
AcDbMText
 10
142.6812132499979
 20
12.88977049999987
 30
0
 40
5
 41
19.44444444444468
 71
    2
 72
    1
  1
Matrix
  7
standard
210
0
220
0
230
1
 50
0
 73
    2
 44
1
  0
DIMENSION
  5
16C
100
AcDbEntity
  8
Langen
  6
ByLayer
 62
  256
370
   -1
100
AcDbDimension
  2
*D2
 10
184.8
 20
-14.7
 30
0
 11
141.925
 21
-12.825
 31
0
 70
   33
 71
    5
 72
    0
  3
Standard
 53
0
210
0
220
0
230
1
100
AcDbAlignedDimension
 13
99.05000000000001
 23
-14.7
 33
0
 14
184.8
 24
-14.7
 34
0
  0
LWPOLYLINE
  5
16D
100
AcDbEntity
  8
Plexiglas
  6
ByLayer
 62
  256
370
   -1
100
AcDbPolyline
 90
    4
 70
    1
 43
0
 10
-10
 20
-24.7
 10
201.5
 20
-24.7
 10
201.5
 20
122.9
 10
-10
 20
122.9
  0
DIMENSION
  5
16E
100
AcDbEntity
  8
Langen
  6
ByLayer
 62
  256
370
   -1
100
AcDbDimension
  2
*D3
 10
-20
 20
122.9
 30
0
 11
-21.875
 21
49.1
 31
0
 70
   33
 71
    5
  3
Standard
 53
0
210
0
220
0
230
1
100
AcDbAlignedDimension
 13
-10
 23
-24.7
 33
0
 14
-10
 24
122.9
 34
0
  0
DIMENSION
  5
16F
100
AcDbEntity
  8
Langen
  6
ByLayer
 62
  256
370
   -1
100
AcDbDimension
  2
*D4
 10
201.5
 20
130
 30
0
 11
95.75
 21
131.875
 31
0
 70
   33
 71
    5
  3
Standard
 53
0
210
0
220
0
230
1
100
AcDbAlignedDimension
 13
-10
 23
122.9
 33
0
 14
201.5
 24
122.9
 34
0
  0
LINE
  5
170
100
AcDbEntity
  8
Seitenansicht
  6
ByLayer
 62
  256
370
   -1
100
AcDbLine
 10
225
 20
122.9
 11
225
 21
-24.7
  0
LWPOLYLINE
  5
171
100
AcDbEntity
  8
Seitenansicht
  6
ByLayer
 62
  256
370
   -1
100
AcDbPolyline
 90
    4
 70
    1
 43
0
 10
220
 20
122.9
 10
230
 20
122.9
 10
230
 20
-24.7
 10
220
 20
-24.7
  0
LINE
  5
172
100
AcDbEntity
  8
Hidden
  6
ByLayer
 62
  256
370
   -1
100
AcDbLine
 10
225
 20
-14.7
 11
220
 21
-14.7
  0
DIMENSION
  5
173
100
AcDbEntity
  8
Langen
  6
ByLayer
 62
  256
370
   -1
100
AcDbDimension
  2
*D5
 10
-20
 20
-55
 30
0
 11
-21.875
 21
-52.5
 31
0
 70
   32
 71
    5
 72
    0
  3
Standard
 53
0
210
0
220
0
230
1
100
AcDbAlignedDimension
 13
-10
 23
-50
 33
0
 14
-10
 24
-55
 34
0
 50
90
100
AcDbRotatedDimension
  0
LWPOLYLINE
  5
174
100
AcDbEntity
  8
Seitenansicht
  6
ByLayer
 62
  256
370
   -1
100
AcDbPolyline
 90
    4
 70
    1
 43
0
 10
-10
 20
-50
 10
201.5
 20
-50
 10
201.5
 20
-55
 10
-10
 20
-55
  0
LWPOLYLINE
  5
175
100
AcDbEntity
  8
Seitenansicht
  6
ByLayer
 62
  256
370
   -1
100
AcDbPolyline
 90
    4
 70
    1
 43
0
 10
-10
 20
-60
 10
201.5
 20
-60
 10
201.5
 20
-55
 10
-10
 20
-55
  0
DIMENSION
  5
176
100
AcDbEntity
  8
Langen
  6
ByLayer
 62
  256
370
   -1
100
AcDbDimension
  2
*D6
 10
210
 20
-60
 30
0
 11
208.125
 21
-55
 31
0
 70
   32
 71
    5
  3
Standard
 53
0
210
0
220
0
230
1
100
AcDbAlignedDimension
 13
201.5
 23
-50
 33
0
 14
201.5
 24
-60
 34
0
 50
90
100
AcDbRotatedDimension
  0
LINE
  5
177
100
AcDbEntity
  8
Hidden
  6
ByLayer
 62
  256
370
   -1
100
AcDbLine
 10
184.8
 20
-50
 11
184.8
 21
-55
  0
LINE
  5
178
100
AcDbEntity
  8
Hidden
  6
ByLayer
 62
  256
370
   -1
100
AcDbLine
 10
99.05000000000001
 20
-50
 11
99.05000000000001
 21
-55
  0
LINE
  5
179
100
AcDbEntity
  8
Hidden
  6
ByLayer
 62
  256
370
   -1
100
AcDbLine
 10
92.45
 20
-55
 11
92.45
 21
-50
  0
LINE
  5
17A
100
AcDbEntity
  8
Hidden
  6
ByLayer
 62
  256
370
   -1
100
AcDbLine
 10
6.7
 20
-50
 11
6.7
 21
-55
  0
DIMENSION
  5
17B
100
AcDbEntity
  8
Langen
  6
ByLayer
 62
  256
370
   -1
100
AcDbDimension
  2
*D7
 10
-20
 20
-60
 30
0
 11
-21.875
 21
-57.5
 31
0
 70
   32
 71
    5
  3
Standard
 53
0
210
0
220
0
230
1
100
AcDbAlignedDimension
 13
-10
 23
-55
 33
0
 14
-10
 24
-60
 34
0
 50
90
100
AcDbRotatedDimension
  0
DIMENSION
  5
17C
100
AcDbEntity
  8
Langen
  6
ByLayer
 62
  256
370
   -1
100
AcDbDimension
  2
*D8
 10
-9
 20
-45
 30
0
 11
-1.65
 21
-43.125
 31
0
 70
   32
 71
    5
  3
Standard
 53
0
210
0
220
0
230
1
100
AcDbAlignedDimension
 13
6.7
 23
-50
 33
0
 14
-10
 24
-50
 34
0
100
AcDbRotatedDimension
  0
DIMENSION
  5
17D
100
AcDbEntity
  8
Langen
  6
ByLayer
 62
  256
370
   -1
100
AcDbDimension
  2
*D9
 10
93
 20
-45
 30
0
 11
95.75
 21
-43.125
 31
0
 70
   32
 71
    5
  3
Standard
 53
0
210
0
220
0
230
1
100
AcDbAlignedDimension
 13
99.05000000000001
 23
-50
 33
0
 14
92.45
 24
-50
 34
0
100
AcDbRotatedDimension
  0
DIMENSION
  5
17E
100
AcDbEntity
  8
Langen
  6
ByLayer
 62
  256
370
   -1
100
AcDbDimension
  2
*D10
 10
201
 20
-45
 30
0
 11
193.15
 21
-43.125
 31
0
 70
   32
 71
    5
  3
Standard
 53
0
210
0
220
0
230
1
100
AcDbAlignedDimension
 13
184.8
 23
-50
 33
0
 14
201.5
 24
-50
 34
0
100
AcDbRotatedDimension
  0
DIMENSION
  5
17F
100
AcDbEntity
  8
Langen
  6
ByLayer
 62
  256
370
   -1
100
AcDbDimension
  2
*D11
 10
92.45
 20
-14.7
 30
0
 11
71
 21
-12
 31
0
 70
   33
 71
    5
 72
    0
  3
Standard
 53
0
210
0
220
0
230
1
100
AcDbAlignedDimension
 13
6.7
 23
-14.7
 33
0
 14
92.45
 24
-14.7
 34
0
  0
LWPOLYLINE
  5
180
100
AcDbEntity
  8
0
  6
ByLayer
 62
  256
370
   -1
100
AcDbPolyline
 90
    4
 70
    1
 43
0
 10
-0.3
 20
-0.175
 10
191.8
 20
-0.175
 10
191.8
 20
95.925
 10
-0.3
 20
95.925
  0
LINE
  5
181
100
AcDbEntity
  8
Hidden
  6
ByLayer
 62
  256
370
   -1
100
AcDbLine
 10
92.45
 20
95.925
 11
99.05000000000001
 21
95.925
  0
LINE
  5
182
100
AcDbEntity
  8
Hidden
  6
ByLayer
 62
  256
370
   -1
100
AcDbLine
 10
92.45
 20
-0.175
 11
99.05000000000001
 21
-0.175
  0
LINE
  5
183
100
AcDbEntity
  8
Hidden
  6
ByLayer
 62
  256
370
   -1
100
AcDbLine
 10
184.8
 20
95.925
 11
191.8
 21
95.925
  0
LINE
  5
184
100
AcDbEntity
  8
Hidden
  6
ByLayer
 62
  256
370
   -1
100
AcDbLine
 10
191.8
 20
95.925
 11
191.8
 21
-0.175
  0
LINE
  5
185
100
AcDbEntity
  8
Hidden
  6
ByLayer
 62
  256
370
   -1
100
AcDbLine
 10
191.8
 20
-0.175
 11
184.8
 21
-0.175
  0
LINE
  5
186
100
AcDbEntity
  8
Hidden
  6
ByLayer
 62
  256
370
   -1
100
AcDbLine
 10
-0.3
 20
-0.175
 11
6.7
 21
-0.175
  0
LINE
  5
187
100
AcDbEntity
  8
Hidden
  6
ByLayer
 62
  256
370
   -1
100
AcDbLine
 10
-0.3
 20
-0.175
 11
-0.3
 21
95.925
  0
LINE
  5
188
100
AcDbEntity
  8
Hidden
  6
ByLayer
 62
  256
370
   -1
100
AcDbLine
 10
-0.3
 20
95.925
 11
6.7
 21
95.925
  0
LINE
  5
189
100
AcDbEntity
  8
Matrix
  6
ByLayer
 62
  256
370
   -1
100
AcDbLine
 10
6.7
 20
95.925
 11
92.45
 21
95.925
  0
LINE
  5
18A
100
AcDbEntity
  8
Matrix
  6
ByLayer
 62
  256
370
   -1
100
AcDbLine
 10
6.7
 20
-0.175
 11
92.45
 21
-0.175
  0
LINE
  5
18B
100
AcDbEntity
  8
Matrix
  6
ByLayer
 62
  256
370
   -1
100
AcDbLine
 10
184.8
 20
95.925
 11
99.05000000000001
 21
95.925
  0
DIMENSION
  5
18C
100
AcDbEntity
  8
Langen
  6
ByLayer
 62
  256
370
   -1
100
AcDbDimension
  2
*D12
 10
-0.2999999999999995
 20
50
 30
0
 11
-5.15
 21
51.875
 31
0
 70
   32
 71
    5
 72
    0
  3
Standard
 53
0
210
0
220
0
230
1
100
AcDbAlignedDimension
 13
-10
 23
46.15497294632208
 33
0
 14
-0.3
 24
43.01517886834098
 34
0
100
AcDbRotatedDimension
  0
DIMENSION
  5
18D
100
AcDbEntity
  8
Langen
  6
ByLayer
 62
  256
370
   -1
100
AcDbDimension
  2
*D13
 10
201.5
 20
50
 30
0
 11
196.65
 21
51.875
 31
0
 70
   32
 71
    5
 72
    0
  3
Standard
 53
0
210
0
220
0
230
1
100
AcDbAlignedDimension
 13
191.8
 23
49.29476702430317
 33
0
 14
201.5
 24
49.92272583989939
 34
0
100
AcDbRotatedDimension
  0
DIMENSION
  5
18E
100
AcDbEntity
  8
Langen
  6
ByLayer
 62
  256
370
   -1
100
AcDbDimension
  2
*D14
 10
6.7
 20
40
 30
0
 11
-1.65
 21
41.875
 31
0
 70
   32
 71
    5
 72
    0
  3
Standard
 53
0
210
0
220
0
230
1
100
AcDbAlignedDimension
 13
-10
 23
40.50334360595612
 33
0
 14
6.7
 24
40.50334360595612
 34
0
100
AcDbRotatedDimension
  0
DIMENSION
  5
18F
100
AcDbEntity
  8
Langen
  6
ByLayer
 62
  256
370
   -1
100
AcDbDimension
  2
*D15
 10
201.5
 20
40
 30
0
 11
193.15
 21
41.875
 31
0
 70
   32
 71
    5
 72
    0
  3
Standard
 53
0
210
0
220
0
230
1
100
AcDbAlignedDimension
 13
184.8
 23
36.42161130458069
 33
0
 14
201.5
 24
35.47967308118636
 34
0
100
AcDbRotatedDimension
  0
DIMENSION
  5
190
100
AcDbEntity
  8
Langen
  6
ByLayer
 62
  256
370
   -1
100
AcDbDimension
  2
*D16
 10
30
 20
95.925
 30
0
 11
28.125
 21
109.4125
 31
0
 70
   32
 71
    5
 72
    0
  3
Standard
 53
0
210
0
220
0
230
1
100
AcDbAlignedDimension
 13
15.07101157430924
 23
122.9
 33
0
 14
13.81509394311681
 24
95.925
 34
0
 50
90
100
AcDbRotatedDimension
  0
DIMENSION
  5
191
100
AcDbEntity
  8
Langen
  6
ByLayer
 62
  256
370
   -1
100
AcDbDimension
  2
*D17
 10
20
 20
-24.7
 30
0
 11
18.125
 21
-19.7
 31
0
 70
   32
 71
    5
 72
    0
  3
Standard
 53
0
210
0
220
0
230
1
100
AcDbAlignedDimension
 13
19.15274387568467
 23
-14.7
 33
0
 14
16.32692920550169
 24
-24.7
 34
0
 50
90
100
AcDbRotatedDimension
  0
DIMENSION
  5
192
100
AcDbEntity
  8
Langen
  6
ByLayer
 62
  256
370
   -1
100
AcDbDimension
  2
*D18
 10
30
 20
-24.7
 30
0
 11
28.125
 21
-12.4375
 31
0
 70
   32
 71
    5
 72
    0
  3
Standard
 53
0
210
0
220
0
230
1
100
AcDbAlignedDimension
 13
32.33987900320528
 23
-0.175
 33
0
 14
35.16569367338825
 24
-24.7
 34
0
 50
90
100
AcDbRotatedDimension
  0
DIMENSION
  5
193
100
AcDbEntity
  8
Langen
  6
ByLayer
 62
  256
370
   -1
100
AcDbDimension
  2
*D19
 10
20
 20
-0.1750000000000004
 30
0
 11
17
 21
15
 31
0
 70
   32
 71
    5
 72
    0
  3
Standard
 53
0
210
0
220
0
230
1
100
AcDbAlignedDimension
 13
18.83876446788656
 23
95.925
 33
0
 14
16.32692920550169
 24
-0.175
 34
0
 50
90
100
AcDbRotatedDimension
  0
LWPOLYLINE
  5
194
100
AcDbEntity
  8
0
  6
ByLayer
 62
  256
370
   -1
100
AcDbPolyline
 90
    4
 70
    1
 43
0
 10
220
 20
112.9
 10
225
 20
112.9
 10
225
 20
-14.7
 10
220
 20
-14.7
  0
LWPOLYLINE
  5
195
100
AcDbEntity
  8
0
  6
ByLayer
 62
  256
370
   -1
100
AcDbPolyline
 90
    4
 70
    1
 43
0
 10
184.8
 20
-50
 10
99.05000000000001
 20
-50
 10
99.05000000000001
 20
-55
 10
184.8
 20
-55
  0
LWPOLYLINE
  5
196
100
AcDbEntity
  8
0
  6
ByLayer
 62
  256
370
   -1
100
AcDbPolyline
 90
    4
 70
    1
 43
0
 10
92.45
 20
-55
 10
6.7
 20
-55
 10
6.7
 20
-50
 10
92.45
 20
-50
  0
LWPOLYLINE
  5
197
100
AcDbEntity
  8
Hidden
  6
ByLayer
 62
  256
370
   -1
100
AcDbPolyline
 90
    4
 70
    1
 43
0
 10
184.8
 20
-50
 10
99.05000000000001
 20
-50
 10
99.05000000000001
 20
-55
 10
184.8
 20
-55
  0
LWPOLYLINE
  5
198
100
AcDbEntity
  8
Hidden
  6
ByLayer
 62
  256
370
   -1
100
AcDbPolyline
 90
    4
 70
    1
 43
0
 10
92.45
 20
-55
 10
6.7
 20
-55
 10
6.7
 20
-50
 10
92.45
 20
-50
  0
LWPOLYLINE
  5
199
100
AcDbEntity
  8
Hidden
  6
ByLayer
 62
  256
370
   -1
100
AcDbPolyline
 90
    4
 70
    1
 43
0
 10
225
 20
95.925
 10
230
 20
95.925
 10
230
 20
-0.175
 10
225
 20
-0.175
  0
LWPOLYLINE
  5
19A
100
AcDbEntity
  8
Hidden
  6
ByLayer
 62
  256
370
   -1
100
AcDbPolyline
 90
    4
 70
    1
 43
0
 10
191.8
 20
-55
 10
-0.3000000000000095
 20
-55
 10
-0.3000000000000095
 20
-60
 10
191.8
 20
-60
  0
DIMENSION
  5
19B
100
AcDbEntity
  8
Langen
  6
ByLayer
 62
  256
370
   -1
100
AcDbDimension
  2
*D20
 10
-0.3000000000000098
 20
-65
 30
0
 11
-5.150000000000005
 21
-63.125
 31
0
 70
   32
 71
    5
 72
    0
  3
Standard
 53
0
210
0
220
0
230
1
100
AcDbAlignedDimension
 13
-10
 23
-60
 33
0
 14
-0.3000000000000095
 24
-60
 34
0
100
AcDbRotatedDimension
  0
DIMENSION
  5
19C
100
AcDbEntity
  8
Langen
  6
ByLayer
 62
  256
370
   -1
100
AcDbDimension
  2
*D21
 10
201.5
 20
-65
 30
0
 11
196.65
 21
-63.125
 31
0
 70
   32
 71
    5
 72
    0
  3
Standard
 53
0
210
0
220
0
230
1
100
AcDbAlignedDimension
 13
191.8
 23
-60
 33
0
 14
201.5
 24
-60
 34
0
100
AcDbRotatedDimension
  0
DIMENSION
  5
19D
100
AcDbEntity
  8
Langen
  6
ByLayer
 62
  256
370
   -1
100
AcDbDimension
  2
*D22
 10
230
 20
-30
 30
0
 11
225
 21
-28.125
 31
0
 70
   32
 71
    5
 72
    0
  3
Standard
 53
0
210
0
220
0
230
1
100
AcDbAlignedDimension
 13
220
 23
-24.7
 33
0
 14
230
 24
-24.7
 34
0
100
AcDbRotatedDimension
  0
DIMENSION
  5
19E
100
AcDbEntity
  8
Langen
  6
ByLayer
 62
  256
370
   -1
100
AcDbDimension
  2
*D23
 10
235
 20
-0.1750000000000006
 30
0
 11
233.125
 21
-12.4375
 31
0
 70
   32
 71
    5
 72
    0
  3
Standard
 53
0
210
0
220
0
230
1
100
AcDbAlignedDimension
 13
230
 23
-24.7
 33
0
 14
230
 24
-0.175
 34
0
 50
90
100
AcDbRotatedDimension
  0
DIMENSION
  5
19F
100
AcDbEntity
  8
Langen
  6
ByLayer
 62
  256
370
   -1
100
AcDbDimension
  2
*D24
 10
235.0560757275853
 20
95.925
 30
0
 11
233.1810757275853
 21
109.4125
 31
0
 70
   32
 71
    5
 72
    0
  3
Standard
 53
0
210
0
220
0
230
1
100
AcDbAlignedDimension
 13
230
 23
122.9
 33
0
 14
230
 24
95.925
 34
0
 50
90
100
AcDbRotatedDimension
  0
DIMENSION
  5
1A0
100
AcDbEntity
  8
Langen
  6
ByLayer
 62
  256
370
   -1
100
AcDbDimension
  2
*D25
 10
-0.2999999999999998
 20
10
 30
0
 11
28
 21
15
 31
0
 70
   32
 71
    5
  3
Standard
 53
0
210
0
220
0
230
1
100
AcDbAlignedDimension
 13
191.8
 23
6.398020235468508
 33
0
 14
-0.3
 24
6.13143605899065
 34
0
100
AcDbRotatedDimension
  0
DIMENSION
  5
1A1
100
AcDbEntity
  8
Langen
  6
ByLayer
 62
  256
370
   -1
100
AcDbDimension
  2
*D26
 10
6.7
 20
43
 30
0
 11
69
 21
46
 31
0
 70
   32
 71
    5
  3
Standard
 53
0
210
0
220
0
230
1
100
AcDbAlignedDimension
 13
92.45
 23
40.91933816846836
 33
0
 14
6.7
 24
42.73797542040028
 34
0
100
AcDbRotatedDimension
  0
LINE
  5
1A2
100
AcDbEntity
  8
Matrix
  6
ByLayer
 62
  256
370
   -1
100
AcDbLine
 10
99.05000000000001
 20
-0.175
 11
184.8
 21
-0.175
  0
LWPOLYLINE
  5
1A3
100
AcDbEntity
  8
Kontur
  6
ByLayer
 62
  256
370
   -1
100
AcDbPolyline
 90
    4
 70
    1
 43
0
 10
6.7
 20
-50
 10
92.45
 20
-50
 10
92.45
 20
-55
 10
6.7
 20
-55
  0
LWPOLYLINE
  5
1A4
100
AcDbEntity
  8
Kontur
  6
ByLayer
 62
  256
370
   -1
100
AcDbPolyline
 90
    4
 70
    1
 43
0
 10
99.05000000000001
 20
-50
 10
184.8
 20
-50
 10
184.8
 20
-55
 10
99.05000000000001
 20
-55
  0
LINE
  5
1A5
100
AcDbEntity
  8
0
  6
ByLayer
 62
  256
370
   -1
100
AcDbLine
 10
6.7
 20
113.1
 11
16.7
 21
113.1
  0
LINE
  5
1A6
100
AcDbEntity
  8
0
  6
ByLayer
 62
  256
370
   -1
100
AcDbLine
 10
6.7
 20
-14.7
 11
16.7
 21
-14.7
  0
LINE
  5
1A7
100
AcDbEntity
  8
0
  6
ByLayer
 62
  256
370
   -1
100
AcDbLine
 10
6.7
 20
95.925
 11
6.700000000000001
 21
105.925
  0
LINE
  5
1A8
100
AcDbEntity
  8
0
  6
ByLayer
 62
  256
370
   -1
100
AcDbLine
 10
92.45
 20
95.925
 11
92.45
 21
105.925
  0
LINE
  5
1A9
100
AcDbEntity
  8
0
  6
ByLayer
 62
  256
370
   -1
100
AcDbLine
 10
99.05000000000001
 20
95.925
 11
99.05000000000001
 21
105.925
  0
LINE
  5
1AA
100
AcDbEntity
  8
0
  6
ByLayer
 62
  256
370
   -1
100
AcDbLine
 10
184.8
 20
95.925
 11
184.8
 21
105.925
  0
LWPOLYLINE
  5
1AB
100
AcDbEntity
  8
Wellplate
  6
ByLayer
 62
  256
370
   -1
100
AcDbPolyline
 90
    4
 70
    1
 43
0
 10
6.700000000000001
 20
113.1
 10
92.45
 20
113.1
 10
92.45
 20
-14.7
 10
6.700000000000001
 20
-14.7
  0
LWPOLYLINE
  5
1AC
100
AcDbEntity
  8
Wellplate
  6
ByLayer
 62
  256
370
   -1
100
AcDbPolyline
 90
    4
 70
    1
 43
0
 10
99.05000000000001
 20
113.1
 10
184.8
 20
113.1
 10
184.8
 20
-14.7
 10
99.05000000000001
 20
-14.7
  0
DIMENSION
  5
1AD
100
AcDbEntity
  8
Langen
  6
ByLayer
 62
  256
370
   -1
100
AcDbDimension
  2
*D27
 10
84.85678576445576
 20
113.1
 30
0
 11
82.98178576445576
 21
49.2
 31
0
 70
   32
 71
    5
  3
Standard
 53
0
210
0
220
0
230
1
100
AcDbAlignedDimension
 13
84.85678576445576
 23
-14.7
 33
0
 14
84.85678576445576
 24
113.1
 34
0
 50
90
100
AcDbRotatedDimension
  0
DIMENSION
  5
1AE
100
AcDbEntity
  8
Langen
  6
ByLayer
 62
  256
370
   -1
100
AcDbDimension
  2
*D28
 10
19.87880627646688
 20
122.9
 30
0
 11
18.00380627646688
 21
118
 31
0
 70
   32
 71
    5
  3
Standard
 53
0
210
0
220
0
230
1
100
AcDbAlignedDimension
 13
19.93959773296984
 23
113.1
 33
0
 14
7.173391867348897
 24
122.9
 34
0
 50
90
100
AcDbRotatedDimension
  0
LWPOLYLINE
  5
1AF
100
AcDbEntity
  8
Kontur
  6
ByLayer
 62
  256
370
   -1
100
AcDbPolyline
 90
    4
 70
    1
 43
0
 10
220
 20
113.1
 10
225
 20
113.1
 10
225
 20
-14.7
 10
220
 20
-14.7
  0
LINE
  5
1B0
100
AcDbEntity
  8
Hidden
  6
ByLayer
 62
  256
370
   -1
100
AcDbLine
 10
220
 20
113.1
 11
225
 21
113.1
  0
DIMENSION
  5
1B1
100
AcDbEntity
  8
Langen
  6
ByLayer
 62
  256
370
   -1
100
AcDbDimension
  2
*D29
 10
215
 20
-14.7
 30
0
 11
213.125
 21
-19.7
 31
0
 70
   32
 71
    5
  3
Standard
 53
0
210
0
220
0
230
1
100
AcDbAlignedDimension
 13
220
 23
-24.7
 33
0
 14
220
 24
-14.7
 34
0
 50
90
100
AcDbRotatedDimension
  0
DIMENSION
  5
1B2
100
AcDbEntity
  8
Langen
  6
ByLayer
 62
  256
370
   -1
100
AcDbDimension
  2
*D30
 10
215
 20
113.1
 30
0
 11
213.125
 21
118
 31
0
 70
   32
 71
    5
  3
Standard
 53
0
210
0
220
0
230
1
100
AcDbAlignedDimension
 13
220
 23
122.9
 33
0
 14
220
 24
113.1
 34
0
 50
90
100
AcDbRotatedDimension
  0
ENDSEC
  0
SECTION
  2
OBJECTS
  0
DICTIONARY
  5
C
330
0
100
AcDbDictionary
281
    1
  3
ACAD_GROUP
350
D
  0
DICTIONARY
  5
D
330
C
100
AcDbDictionary
281
    1
  0
ENDSEC
  0
EOF
