M48
INCH,TZ
T1C0.0157
T2C0.0354
T3C0.0374
T4C0.0394
T5C0.0472
T6C0.0492
T7C0.0512
T8C0.1245
T9C0.1433
%
G90
G05
T1
X22129Y-21332
X22529Y-21582
X22554Y-24382
X23429Y-22382
X24679Y-36132
X25571Y-48012
X26554Y-27357
X27304Y-24507
X27362Y-35433
X27539Y-35818
X27557Y-20935
X27679Y-22127
X27825Y-36181
X27929Y-28782
X28110Y-36614
X28179Y-20757
X28179Y-26632
X28179Y-27782
X29431Y-22959
X30066Y-24045
X30429Y-21207
X30429Y-28007
X30679Y-22282
X30689Y-47618
X30904Y-21607
X31102Y-22362
X31293Y-22726
X31329Y-29032
X31378Y-23110
X31654Y-23504
X32687Y-27480
X33579Y-23432
X34567Y-27913
X34904Y-23157
X35236Y-28661
X35531Y-47598
X35551Y-27913
X35551Y-28346
X35829Y-23107
X36279Y-21557
X36854Y-21882
X37008Y-24252
X37402Y-26299
X37480Y-20709
X37480Y-25000
X37480Y-25394
X37480Y-25787
X37712Y-28666
X37992Y-24685
X38031Y-23898
X38661Y-28248
X39232Y-28691
X40304Y-33882
X40479Y-37557
X40827Y-20374
X41063Y-36654
X41079Y-42539
X41091Y-41543
X41102Y-39035
X41811Y-47756
X43898Y-38071
T2
X43799Y-22244
X46358Y-22244
T3
X45236Y-27008
X45236Y-28008
X45236Y-29008
X45236Y-30008
X45236Y-31008
X45236Y-32008
X45236Y-33008
X45236Y-34008
X46236Y-27008
X46236Y-28008
X46236Y-29008
X46236Y-30008
X46236Y-31008
X46236Y-32008
X46236Y-33008
X46236Y-34008
T4
X22429Y-20482
X23429Y-20482
X24429Y-20482
X25429Y-20482
X29567Y-29843
X30567Y-29843
X31567Y-29843
X32567Y-29843
X33567Y-29843
X34567Y-29843
X35567Y-29843
T5
X46063Y-38406
X46063Y-40374
T6
X23465Y-48819
X23465Y-53740
X25236Y-48819
X25236Y-53740
X28484Y-48819
X28484Y-53740
X30256Y-48819
X30256Y-53740
X33504Y-48799
X33504Y-53720
X35276Y-48799
X35276Y-53720
X38524Y-48799
X38524Y-53720
X40295Y-48799
X40295Y-53720
T7
X23199Y-24961
X23199Y-27559
T8
X44224Y-50492
T9
X44224Y-48130
X46075Y-49311
T0
M30
