G04 #@! TF.GenerationSoftware,KiCad,Pcbnew,(5.1.10)-1*
G04 #@! TF.CreationDate,2022-02-13T21:23:31+01:00*
G04 #@! TF.ProjectId,LITOS_v3,4c49544f-535f-4763-932e-6b696361645f,rev?*
G04 #@! TF.SameCoordinates,Original*
G04 #@! TF.FileFunction,Soldermask,Bot*
G04 #@! TF.FilePolarity,Negative*
%FSLAX46Y46*%
G04 Gerber Fmt 4.6, Leading zero omitted, Abs format (unit mm)*
G04 Created by KiCad (PCBNEW (5.1.10)-1) date 2022-02-13 21:23:31*
%MOMM*%
%LPD*%
G01*
G04 APERTURE LIST*
%ADD10C,1.512000*%
%ADD11C,2.052000*%
%ADD12C,5.402000*%
%ADD13C,5.102000*%
%ADD14O,1.802000X1.802000*%
%ADD15C,1.902000*%
%ADD16C,1.952000*%
%ADD17C,1.527000*%
%ADD18C,0.100000*%
G04 APERTURE END LIST*
D10*
X117750000Y-56500000D03*
X111250000Y-56500000D03*
D11*
X58925500Y-70000000D03*
X58925500Y-63400000D03*
D12*
X117030000Y-125250000D03*
D13*
X112330000Y-128250000D03*
D12*
X112330000Y-122250000D03*
D14*
X56968500Y-52025000D03*
X59508500Y-52025000D03*
X62048500Y-52025000D03*
G36*
G01*
X63738500Y-51124000D02*
X65438500Y-51124000D01*
G75*
G02*
X65489500Y-51175000I0J-51000D01*
G01*
X65489500Y-52875000D01*
G75*
G02*
X65438500Y-52926000I-51000J0D01*
G01*
X63738500Y-52926000D01*
G75*
G02*
X63687500Y-52875000I0J51000D01*
G01*
X63687500Y-51175000D01*
G75*
G02*
X63738500Y-51124000I51000J0D01*
G01*
G37*
D15*
X66350000Y-130250000D03*
X57350000Y-130250000D03*
D16*
X59600000Y-136500000D03*
X59600000Y-124000000D03*
X64100000Y-136500000D03*
X64100000Y-124000000D03*
D15*
X79100000Y-130250000D03*
X70100000Y-130250000D03*
D16*
X72350000Y-136500000D03*
X72350000Y-124000000D03*
X76850000Y-136500000D03*
X76850000Y-124000000D03*
D15*
X91850000Y-130200000D03*
X82850000Y-130200000D03*
D16*
X85100000Y-136450000D03*
X85100000Y-123950000D03*
X89600000Y-136450000D03*
X89600000Y-123950000D03*
D15*
X104600000Y-130200000D03*
X95600000Y-130200000D03*
D16*
X97850000Y-136450000D03*
X97850000Y-123950000D03*
X102350000Y-136450000D03*
X102350000Y-123950000D03*
G36*
G01*
X75950000Y-76701000D02*
X74250000Y-76701000D01*
G75*
G02*
X74199000Y-76650000I0J51000D01*
G01*
X74199000Y-74950000D01*
G75*
G02*
X74250000Y-74899000I51000J0D01*
G01*
X75950000Y-74899000D01*
G75*
G02*
X76001000Y-74950000I0J-51000D01*
G01*
X76001000Y-76650000D01*
G75*
G02*
X75950000Y-76701000I-51000J0D01*
G01*
G37*
D14*
X77640000Y-75800000D03*
X80180000Y-75800000D03*
X82720000Y-75800000D03*
X85260000Y-75800000D03*
X87800000Y-75800000D03*
X90340000Y-75800000D03*
G36*
G01*
X114136500Y-69312500D02*
X114136500Y-67887500D01*
G75*
G02*
X114187500Y-67836500I51000J0D01*
G01*
X115612500Y-67836500D01*
G75*
G02*
X115663500Y-67887500I0J-51000D01*
G01*
X115663500Y-69312500D01*
G75*
G02*
X115612500Y-69363500I-51000J0D01*
G01*
X114187500Y-69363500D01*
G75*
G02*
X114136500Y-69312500I0J51000D01*
G01*
G37*
D17*
X114900000Y-71140000D03*
X114900000Y-73680000D03*
X114900000Y-76220000D03*
X114900000Y-78760000D03*
X114900000Y-81300000D03*
X114900000Y-83840000D03*
X114900000Y-86380000D03*
X117440000Y-86380000D03*
X117440000Y-83840000D03*
X117440000Y-81300000D03*
X117440000Y-78760000D03*
X117440000Y-76220000D03*
X117440000Y-73680000D03*
X117440000Y-71140000D03*
X117440000Y-68600000D03*
G36*
G01*
X116100000Y-96599000D02*
X117900000Y-96599000D01*
G75*
G02*
X117951000Y-96650000I0J-51000D01*
G01*
X117951000Y-98450000D01*
G75*
G02*
X117900000Y-98501000I-51000J0D01*
G01*
X116100000Y-98501000D01*
G75*
G02*
X116049000Y-98450000I0J51000D01*
G01*
X116049000Y-96650000D01*
G75*
G02*
X116100000Y-96599000I51000J0D01*
G01*
G37*
D15*
X117000000Y-102550000D03*
D18*
G36*
X114778611Y-123365211D02*
G01*
X114778938Y-123367010D01*
X114773663Y-123384397D01*
X114771300Y-123408388D01*
X114773663Y-123432379D01*
X114780663Y-123455454D01*
X114792028Y-123476718D01*
X114807323Y-123495355D01*
X114825960Y-123510650D01*
X114847224Y-123522015D01*
X114870299Y-123529015D01*
X114894290Y-123531378D01*
X114918281Y-123529015D01*
X114941356Y-123522015D01*
X114962620Y-123510650D01*
X114976664Y-123499124D01*
X114978638Y-123498798D01*
X114979906Y-123500344D01*
X114979347Y-123502084D01*
X114943653Y-123537778D01*
X114649704Y-123977704D01*
X114584824Y-124134336D01*
X114583237Y-124135554D01*
X114581389Y-124134789D01*
X114581062Y-124132990D01*
X114586337Y-124115603D01*
X114588700Y-124091612D01*
X114586337Y-124067621D01*
X114579337Y-124044546D01*
X114567972Y-124023282D01*
X114552677Y-124004645D01*
X114534040Y-123989350D01*
X114512776Y-123977985D01*
X114489701Y-123970985D01*
X114465710Y-123968622D01*
X114441719Y-123970985D01*
X114418644Y-123977985D01*
X114397380Y-123989350D01*
X114383336Y-124000876D01*
X114381362Y-124001202D01*
X114380094Y-123999656D01*
X114380653Y-123997916D01*
X114416347Y-123962222D01*
X114710296Y-123522296D01*
X114775176Y-123365664D01*
X114776763Y-123364446D01*
X114778611Y-123365211D01*
G37*
M02*
