G04 #@! TF.GenerationSoftware,KiCad,Pcbnew,(5.1.10)-1*
G04 #@! TF.CreationDate,2022-02-13T21:23:31+01:00*
G04 #@! TF.ProjectId,LITOS_v3,4c49544f-535f-4763-932e-6b696361645f,rev?*
G04 #@! TF.SameCoordinates,Original*
G04 #@! TF.FileFunction,Legend,Bot*
G04 #@! TF.FilePolarity,Positive*
%FSLAX46Y46*%
G04 Gerber Fmt 4.6, Leading zero omitted, Abs format (unit mm)*
G04 Created by KiCad (PCBNEW (5.1.10)-1) date 2022-02-13 21:23:31*
%MOMM*%
%LPD*%
G01*
G04 APERTURE LIST*
%ADD10C,0.300000*%
G04 APERTURE END LIST*
D10*
X98721428Y-107187857D02*
X100221428Y-107187857D01*
X99650000Y-107187857D02*
X99721428Y-107045000D01*
X99721428Y-106759285D01*
X99650000Y-106616428D01*
X99578571Y-106545000D01*
X99435714Y-106473571D01*
X99007142Y-106473571D01*
X98864285Y-106545000D01*
X98792857Y-106616428D01*
X98721428Y-106759285D01*
X98721428Y-107045000D01*
X98792857Y-107187857D01*
X99721428Y-105973571D02*
X98721428Y-105616428D01*
X99721428Y-105259285D02*
X98721428Y-105616428D01*
X98364285Y-105759285D01*
X98292857Y-105830714D01*
X98221428Y-105973571D01*
X99183333Y-103850238D02*
X99183333Y-103088333D01*
X98726190Y-104002619D02*
X100326190Y-103469285D01*
X98726190Y-102935952D01*
X98726190Y-102174047D02*
X98802380Y-102326428D01*
X98954761Y-102402619D01*
X100326190Y-102402619D01*
X98802380Y-100955000D02*
X98726190Y-101107380D01*
X98726190Y-101412142D01*
X98802380Y-101564523D01*
X98954761Y-101640714D01*
X99564285Y-101640714D01*
X99716666Y-101564523D01*
X99792857Y-101412142D01*
X99792857Y-101107380D01*
X99716666Y-100955000D01*
X99564285Y-100878809D01*
X99411904Y-100878809D01*
X99259523Y-101640714D01*
X98726190Y-100345476D02*
X99792857Y-99507380D01*
X99792857Y-100345476D02*
X98726190Y-99507380D01*
X98726190Y-96916904D02*
X98726190Y-97678809D01*
X100326190Y-97678809D01*
X98726190Y-95697857D02*
X99564285Y-95697857D01*
X99716666Y-95774047D01*
X99792857Y-95926428D01*
X99792857Y-96231190D01*
X99716666Y-96383571D01*
X98802380Y-95697857D02*
X98726190Y-95850238D01*
X98726190Y-96231190D01*
X98802380Y-96383571D01*
X98954761Y-96459761D01*
X99107142Y-96459761D01*
X99259523Y-96383571D01*
X99335714Y-96231190D01*
X99335714Y-95850238D01*
X99411904Y-95697857D01*
X99792857Y-94935952D02*
X98726190Y-94935952D01*
X99640476Y-94935952D02*
X99716666Y-94859761D01*
X99792857Y-94707380D01*
X99792857Y-94478809D01*
X99716666Y-94326428D01*
X99564285Y-94250238D01*
X98726190Y-94250238D01*
X98726190Y-92802619D02*
X100326190Y-92802619D01*
X98802380Y-92802619D02*
X98726190Y-92955000D01*
X98726190Y-93259761D01*
X98802380Y-93412142D01*
X98878571Y-93488333D01*
X99030952Y-93564523D01*
X99488095Y-93564523D01*
X99640476Y-93488333D01*
X99716666Y-93412142D01*
X99792857Y-93259761D01*
X99792857Y-92955000D01*
X99716666Y-92802619D01*
X98726190Y-91812142D02*
X98802380Y-91964523D01*
X98878571Y-92040714D01*
X99030952Y-92116904D01*
X99488095Y-92116904D01*
X99640476Y-92040714D01*
X99716666Y-91964523D01*
X99792857Y-91812142D01*
X99792857Y-91583571D01*
X99716666Y-91431190D01*
X99640476Y-91355000D01*
X99488095Y-91278809D01*
X99030952Y-91278809D01*
X98878571Y-91355000D01*
X98802380Y-91431190D01*
X98726190Y-91583571D01*
X98726190Y-91812142D01*
X98726190Y-90364523D02*
X98802380Y-90516904D01*
X98954761Y-90593095D01*
X100326190Y-90593095D01*
X99792857Y-89983571D02*
X99792857Y-89374047D01*
X100326190Y-89755000D02*
X98954761Y-89755000D01*
X98802380Y-89678809D01*
X98726190Y-89526428D01*
X98726190Y-89374047D01*
X98726190Y-86326428D02*
X98726190Y-86402619D01*
X98802380Y-86555000D01*
X99030952Y-86783571D01*
X99488095Y-87164523D01*
X99716666Y-87316904D01*
X99945238Y-87393095D01*
X100097619Y-87393095D01*
X100250000Y-87316904D01*
X100326190Y-87164523D01*
X100326190Y-87088333D01*
X100250000Y-86935952D01*
X100097619Y-86859761D01*
X100021428Y-86859761D01*
X99869047Y-86935952D01*
X99792857Y-87012142D01*
X99488095Y-87469285D01*
X99411904Y-87545476D01*
X99259523Y-87621666D01*
X99030952Y-87621666D01*
X98878571Y-87545476D01*
X98802380Y-87469285D01*
X98726190Y-87316904D01*
X98726190Y-87088333D01*
X98802380Y-86935952D01*
X98878571Y-86859761D01*
X99183333Y-86631190D01*
X99411904Y-86555000D01*
X99564285Y-86555000D01*
X97626190Y-104002619D02*
X97626190Y-103088333D01*
X96026190Y-103545476D02*
X97626190Y-103545476D01*
X96026190Y-102555000D02*
X97626190Y-102555000D01*
X96026190Y-101869285D02*
X96864285Y-101869285D01*
X97016666Y-101945476D01*
X97092857Y-102097857D01*
X97092857Y-102326428D01*
X97016666Y-102478809D01*
X96940476Y-102555000D01*
X96026190Y-100878809D02*
X96102380Y-101031190D01*
X96178571Y-101107380D01*
X96330952Y-101183571D01*
X96788095Y-101183571D01*
X96940476Y-101107380D01*
X97016666Y-101031190D01*
X97092857Y-100878809D01*
X97092857Y-100650238D01*
X97016666Y-100497857D01*
X96940476Y-100421666D01*
X96788095Y-100345476D01*
X96330952Y-100345476D01*
X96178571Y-100421666D01*
X96102380Y-100497857D01*
X96026190Y-100650238D01*
X96026190Y-100878809D01*
X96026190Y-99659761D02*
X97092857Y-99659761D01*
X96940476Y-99659761D02*
X97016666Y-99583571D01*
X97092857Y-99431190D01*
X97092857Y-99202619D01*
X97016666Y-99050238D01*
X96864285Y-98974047D01*
X96026190Y-98974047D01*
X96864285Y-98974047D02*
X97016666Y-98897857D01*
X97092857Y-98745476D01*
X97092857Y-98516904D01*
X97016666Y-98364523D01*
X96864285Y-98288333D01*
X96026190Y-98288333D01*
X96026190Y-96840714D02*
X96864285Y-96840714D01*
X97016666Y-96916904D01*
X97092857Y-97069285D01*
X97092857Y-97374047D01*
X97016666Y-97526428D01*
X96102380Y-96840714D02*
X96026190Y-96993095D01*
X96026190Y-97374047D01*
X96102380Y-97526428D01*
X96254761Y-97602619D01*
X96407142Y-97602619D01*
X96559523Y-97526428D01*
X96635714Y-97374047D01*
X96635714Y-96993095D01*
X96711904Y-96840714D01*
X96102380Y-96155000D02*
X96026190Y-96002619D01*
X96026190Y-95697857D01*
X96102380Y-95545476D01*
X96254761Y-95469285D01*
X96330952Y-95469285D01*
X96483333Y-95545476D01*
X96559523Y-95697857D01*
X96559523Y-95926428D01*
X96635714Y-96078809D01*
X96788095Y-96155000D01*
X96864285Y-96155000D01*
X97016666Y-96078809D01*
X97092857Y-95926428D01*
X97092857Y-95697857D01*
X97016666Y-95545476D01*
X96026190Y-93564523D02*
X97626190Y-93564523D01*
X96864285Y-93564523D02*
X96864285Y-92650238D01*
X96026190Y-92650238D02*
X97626190Y-92650238D01*
X96026190Y-91659761D02*
X96102380Y-91812142D01*
X96178571Y-91888333D01*
X96330952Y-91964523D01*
X96788095Y-91964523D01*
X96940476Y-91888333D01*
X97016666Y-91812142D01*
X97092857Y-91659761D01*
X97092857Y-91431190D01*
X97016666Y-91278809D01*
X96940476Y-91202619D01*
X96788095Y-91126428D01*
X96330952Y-91126428D01*
X96178571Y-91202619D01*
X96102380Y-91278809D01*
X96026190Y-91431190D01*
X96026190Y-91659761D01*
X97626190Y-91812142D02*
X97550000Y-91735952D01*
X97473809Y-91812142D01*
X97550000Y-91888333D01*
X97626190Y-91812142D01*
X97473809Y-91812142D01*
X97626190Y-91202619D02*
X97550000Y-91126428D01*
X97473809Y-91202619D01*
X97550000Y-91278809D01*
X97626190Y-91202619D01*
X97473809Y-91202619D01*
X96026190Y-90440714D02*
X97626190Y-90440714D01*
X96026190Y-89755000D02*
X96864285Y-89755000D01*
X97016666Y-89831190D01*
X97092857Y-89983571D01*
X97092857Y-90212142D01*
X97016666Y-90364523D01*
X96940476Y-90440714D01*
X96102380Y-88383571D02*
X96026190Y-88535952D01*
X96026190Y-88840714D01*
X96102380Y-88993095D01*
X96254761Y-89069285D01*
X96864285Y-89069285D01*
X97016666Y-88993095D01*
X97092857Y-88840714D01*
X97092857Y-88535952D01*
X97016666Y-88383571D01*
X96864285Y-88307380D01*
X96711904Y-88307380D01*
X96559523Y-89069285D01*
X97092857Y-87621666D02*
X96026190Y-87621666D01*
X96940476Y-87621666D02*
X97016666Y-87545476D01*
X97092857Y-87393095D01*
X97092857Y-87164523D01*
X97016666Y-87012142D01*
X96864285Y-86935952D01*
X96026190Y-86935952D01*
X96102380Y-85564523D02*
X96026190Y-85716904D01*
X96026190Y-86021666D01*
X96102380Y-86174047D01*
X96254761Y-86250238D01*
X96864285Y-86250238D01*
X97016666Y-86174047D01*
X97092857Y-86021666D01*
X97092857Y-85716904D01*
X97016666Y-85564523D01*
X96864285Y-85488333D01*
X96711904Y-85488333D01*
X96559523Y-86250238D01*
X96026190Y-84802619D02*
X97092857Y-84802619D01*
X96788095Y-84802619D02*
X96940476Y-84726428D01*
X97016666Y-84650238D01*
X97092857Y-84497857D01*
X97092857Y-84345476D01*
M02*
